<?xml version="1.0" encoding="UTF-8" standalone="no"?>
<!-- Created with Inkscape (http://www.inkscape.org/) -->

<svg
   width="878.95386"
   height="878.95697"
   viewBox="0 0 232.55654 232.55737"
   version="1.1"
   id="svg5"
   inkscape:version="1.3.2 (091e20e, 2023-11-25, custom)"
   xml:space="preserve"
   sodipodi:docname="VoiceArchi-UI-Design2.svg"
   xmlns:inkscape="http://www.inkscape.org/namespaces/inkscape"
   xmlns:sodipodi="http://sodipodi.sourceforge.net/DTD/sodipodi-0.dtd"
   xmlns="http://www.w3.org/2000/svg"
   xmlns:svg="http://www.w3.org/2000/svg"><sodipodi:namedview
     id="namedview7"
     pagecolor="#505050"
     bordercolor="#eeeeee"
     borderopacity="1"
     inkscape:showpageshadow="0"
     inkscape:pageopacity="0"
     inkscape:pagecheckerboard="0"
     inkscape:deskcolor="#999999"
     inkscape:document-units="mm"
     showgrid="false"
     showborder="false"
     borderlayer="false"
     inkscape:zoom="0.60804216"
     inkscape:cx="-2547.5207"
     inkscape:cy="-2168.4352"
     inkscape:window-width="2560"
     inkscape:window-height="1334"
     inkscape:window-x="-11"
     inkscape:window-y="-11"
     inkscape:window-maximized="1"
     inkscape:current-layer="layer3" /><defs
     id="defs2"><clipPath
       clipPathUnits="userSpaceOnUse"
       id="clipPath263-9"><path
         d="m 4463.75,2454.77 c 31.83,15.98 44.63,54.73 28.67,86.52 -15.96,31.76 -54.72,44.61 -86.47,28.63 -31.79,-15.98 -44.61,-54.71 -28.65,-86.49 15.94,-31.81 54.67,-44.6 86.45,-28.66 z m -215.92,182.55 c 37.17,16.08 54.25,59.22 38.24,96.35 -16.07,37.15 -59.16,54.26 -96.35,38.22 -37.09,-16.02 -54.26,-59.13 -38.19,-96.29 16.02,-37.17 59.16,-54.29 96.3,-38.28 z m -207.89,200.82 c 42.56,15.56 64.56,62.68 49.04,105.3 -15.55,42.6 -62.65,64.57 -105.27,49.04 -42.66,-15.51 -64.61,-62.65 -49.09,-105.27 15.54,-42.57 62.66,-64.58 105.32,-49.07 z m -198.51,218.75 c 48.15,14.44 75.47,65.12 61.07,113.26 -14.45,48.12 -65.15,75.46 -113.28,61.05 -48.12,-14.42 -75.46,-65.15 -61.06,-113.28 14.44,-48.14 65.16,-75.47 113.27,-61.03 z m -187.62,236.19 c 53.63,12.73 86.82,66.53 74.09,120.17 -12.75,53.68 -66.53,86.86 -120.19,74.1 -53.67,-12.73 -86.81,-66.53 -74.09,-120.18 12.72,-53.65 66.51,-86.85 120.19,-74.09 z m -175.45,253.12 c 59.1,10.43 98.61,66.82 88.16,125.94 -10.43,59.11 -66.83,98.55 -125.93,88.12 -59.12,-10.41 -98.61,-66.84 -88.17,-125.93 10.44,-59.11 66.82,-98.59 125.94,-88.13 z m -161.9,269.41 c 64.53,7.54 110.64,65.94 103.1,130.42 -7.57,64.49 -65.94,110.63 -130.43,103.08 -64.52,-7.55 -110.62,-65.98 -103.1,-130.46 7.56,-64.45 65.95,-110.58 130.43,-103.04 z m 1365.23,-989.98 c 19.12,8.45 27.77,30.8 19.38,49.9 -8.51,19.16 -30.81,27.82 -49.95,19.36 -19.14,-8.47 -27.8,-30.79 -19.33,-49.9 8.45,-19.14 30.82,-27.79 49.9,-19.36 z m -197.86,174.19 c 24.13,9.01 36.41,35.93 27.39,60.08 -9.03,24.16 -35.96,36.46 -60.1,27.4 -24.16,-9 -36.41,-35.91 -27.4,-60.06 9.04,-24.19 35.94,-36.44 60.11,-27.42 z m -190.08,191.55 c 29.33,9.05 45.76,40.19 36.67,69.48 -9.02,29.32 -40.12,45.75 -69.42,36.7 -29.33,-9.07 -45.76,-40.14 -36.71,-69.5 9.04,-29.3 40.13,-45.7 69.46,-36.68 z m -180.88,208.61 c 34.54,8.52 55.63,43.38 47.13,77.96 -8.49,34.53 -43.35,55.66 -77.92,47.13 -34.54,-8.49 -55.64,-43.37 -47.16,-77.94 8.52,-34.54 43.41,-55.64 77.95,-47.15 z m -170.38,225.23 c 39.79,7.38 66.1,45.57 58.71,85.36 -7.4,39.78 -45.56,66.1 -85.41,58.74 -39.76,-7.4 -66.04,-45.64 -58.7,-85.38 7.39,-39.82 45.63,-66.09 85.4,-58.72 z m -158.48,241.28 c 44.97,5.65 76.87,46.69 71.25,91.7 -5.7,45.01 -46.75,76.92 -91.74,71.27 -45.01,-5.67 -76.91,-46.74 -71.3,-91.73 5.7,-45.01 46.73,-76.92 91.79,-71.24 z m -145.42,256.7 c 50.14,3.34 88.07,46.7 84.71,96.85 -3.34,50.13 -46.72,88.03 -96.85,84.67 -50.12,-3.31 -88.06,-46.71 -84.68,-96.82 3.34,-50.14 46.66,-88.07 96.82,-84.7 z M 5116.53,3023.03 c 1.24,0.5 1.8,1.96 1.24,3.16 -0.59,1.23 -1.98,1.73 -3.2,1.21 -1.24,-0.55 -1.76,-1.98 -1.23,-3.18 0.54,-1.2 1.99,-1.79 3.19,-1.19 z m -187.3,147.43 c 5.83,2.24 8.72,8.76 6.46,14.54 -2.2,5.85 -8.67,8.76 -14.5,6.5 -5.86,-2.25 -8.75,-8.73 -6.49,-14.56 2.21,-5.78 8.73,-8.7 14.53,-6.48 z m -181.11,164.3 c 10.61,3.37 16.43,14.67 13.09,25.26 -3.35,10.61 -14.7,16.46 -25.31,13.1 -10.57,-3.37 -16.43,-14.69 -13.08,-25.25 3.36,-10.63 14.69,-16.48 25.3,-13.11 z m -173.63,180.87 c 15.5,3.97 24.87,19.75 20.93,35.27 -3.97,15.47 -19.71,24.88 -35.28,20.93 -15.49,-3.94 -24.86,-19.74 -20.88,-35.25 3.93,-15.53 19.68,-24.91 35.23,-20.95 z m -164.79,197.14 c 20.54,3.97 33.92,23.84 29.96,44.38 -3.97,20.49 -23.84,33.92 -44.32,29.95 -20.5,-4 -33.95,-23.88 -29.96,-44.37 3.93,-20.51 23.81,-33.94 44.32,-29.96 z m -154.63,212.98 c 25.54,3.38 43.53,26.88 40.09,52.44 -3.45,25.58 -26.93,43.54 -52.48,40.1 -25.56,-3.43 -43.52,-26.93 -40.11,-52.49 3.43,-25.58 26.93,-43.51 52.5,-40.05 z m -143.19,228.18 c 30.6,2.3 53.53,28.98 51.2,59.58 -2.28,30.58 -28.97,53.51 -59.54,51.22 -30.64,-2.29 -53.54,-28.96 -51.22,-59.58 2.28,-30.57 28.93,-53.5 59.56,-51.22 z m -130.53,242.88 c 35.56,0.57 63.9,29.91 63.3,65.47 -0.57,35.59 -29.93,63.93 -65.48,63.34 -35.54,-0.62 -63.93,-29.91 -63.32,-65.52 0.6,-35.56 29.92,-63.89 65.5,-63.29 z m 898.75,-587.76 c 1.31,0.28 2.15,1.51 1.88,2.85 -0.26,1.29 -1.53,2.16 -2.86,1.88 -1.31,-0.28 -2.15,-1.55 -1.85,-2.84 0.24,-1.29 1.52,-2.15 2.83,-1.89 z m -150.26,184.4 c 6.18,0.89 10.43,6.56 9.56,12.73 -0.88,6.2 -6.53,10.48 -12.74,9.59 -6.17,-0.87 -10.43,-6.58 -9.58,-12.74 0.9,-6.18 6.64,-10.46 12.76,-9.58 z m -140.53,199.51 c 11.06,0.91 19.28,10.62 18.38,21.7 -0.96,11.08 -10.67,19.34 -21.77,18.41 -11.04,-0.93 -19.26,-10.64 -18.37,-21.77 0.96,-11.06 10.67,-19.28 21.76,-18.34 z m -129.58,214.03 c 16.01,0.43 28.65,13.72 28.22,29.72 -0.4,16.01 -13.67,28.63 -29.69,28.23 -16,-0.38 -28.68,-13.69 -28.27,-29.7 0.43,-16 13.74,-28.64 29.74,-28.25 z M 4342.28,4635 c 20.92,-0.72 38.42,15.68 39.1,36.58 0.68,20.88 -15.7,38.38 -36.59,39.08 -20.9,0.69 -38.34,-15.69 -39.05,-36.56 -0.69,-20.93 15.71,-38.39 36.54,-39.1 z m 482.53,-10.75 c 1.31,-0.04 2.43,1.01 2.48,2.36 0.03,1.29 -1.01,2.43 -2.34,2.46 -1.36,0.06 -2.45,-1.02 -2.48,-2.35 -0.04,-1.35 1,-2.43 2.34,-2.47 z m -106.12,212.28 c 6.21,-0.54 11.67,4.07 12.17,10.27 0.49,6.23 -4.09,11.66 -10.3,12.22 -6.22,0.51 -11.64,-4.12 -12.19,-10.35 -0.53,-6.16 4.1,-11.62 10.32,-12.14 z m -516.22,276.94 c -15.98,31.84 -54.73,44.64 -86.53,28.68 -31.76,-15.97 -44.6,-54.72 -28.62,-86.47 15.98,-31.81 54.72,-44.62 86.49,-28.65 31.8,15.94 44.62,54.66 28.66,86.44 z m -182.55,-215.91 c -16.08,37.16 -59.21,54.25 -96.35,38.24 -37.15,-16.07 -54.26,-59.18 -38.21,-96.36 16.01,-37.09 59.13,-54.26 96.28,-38.19 37.17,16.03 54.29,59.15 38.28,96.31 z m -200.81,-207.9 c -15.57,42.55 -62.68,64.57 -105.31,49.05 -42.59,-15.55 -64.57,-62.65 -49.04,-105.28 15.51,-42.65 62.65,-64.61 105.27,-49.09 42.59,15.55 64.57,62.67 49.08,105.32 z m -218.76,-198.51 c -14.43,48.15 -65.12,75.47 -113.26,61.08 -48.12,-14.46 -75.47,-65.16 -61.03,-113.29 14.41,-48.12 65.13,-75.46 113.27,-61.06 48.13,14.45 75.45,65.16 61.02,113.27 z m -236.18,-187.62 c -12.73,53.64 -66.54,86.82 -120.18,74.09 -53.67,-12.73 -86.86,-66.52 -74.09,-120.18 12.72,-53.67 66.51,-86.82 120.18,-74.09 53.65,12.72 86.85,66.51 74.09,120.18 z m -253.12,-175.45 c -10.43,59.1 -66.82,98.61 -125.95,88.15 -59.1,-10.42 -98.55,-66.8 -88.11,-125.92 10.4,-59.13 66.84,-98.6 125.93,-88.16 59.11,10.44 98.58,66.81 88.13,125.93 z m -269.41,-161.9 c -7.54,64.53 -65.94,110.65 -130.43,103.1 -64.49,-7.57 -110.62,-65.94 -103.07,-130.42 7.54,-64.53 65.98,-110.62 130.45,-103.11 64.45,7.57 110.58,65.97 103.05,130.43 z m 989.97,1365.24 c -8.44,19.11 -30.79,27.76 -49.91,19.37 -19.14,-8.5 -27.81,-30.81 -19.35,-49.95 8.48,-19.13 30.8,-27.8 49.91,-19.32 19.13,8.45 27.78,30.82 19.35,49.9 z m -174.2,-197.86 c -9,24.13 -35.9,36.41 -60.06,27.38 -24.17,-9.02 -36.47,-35.96 -27.4,-60.1 9,-24.15 35.9,-36.41 60.06,-27.4 24.17,9.03 36.42,35.95 27.4,60.12 z m -191.55,-190.09 c -9.02,29.33 -40.18,45.76 -69.47,36.68 -29.33,-9.03 -45.74,-40.13 -36.69,-69.42 9.05,-29.34 40.13,-45.77 69.47,-36.72 29.33,9.05 45.72,40.14 36.69,69.46 z m -208.59,-180.88 c -8.53,34.54 -43.39,55.63 -77.97,47.14 -34.52,-8.49 -55.66,-43.37 -47.13,-77.94 8.5,-34.52 43.36,-55.63 77.95,-47.14 34.53,8.52 55.63,43.4 47.15,77.94 z m -225.24,-170.38 c -7.37,39.79 -45.56,66.09 -85.36,58.71 -39.78,-7.38 -66.09,-45.56 -58.73,-85.41 7.39,-39.76 45.64,-66.04 85.38,-58.69 39.81,7.37 66.09,45.62 58.71,85.39 z m -241.27,-158.48 c -5.66,44.97 -46.7,76.88 -91.7,71.25 -45.01,-5.7 -76.92,-46.74 -71.26,-91.74 5.65,-45.01 46.73,-76.91 91.71,-71.28 45.01,5.68 76.92,46.71 71.25,91.77 z m -256.69,-145.42 c -3.36,50.13 -46.71,88.06 -96.87,84.71 -50.12,-3.33 -88.03,-46.71 -84.68,-96.84 3.33,-50.13 46.73,-88.06 96.84,-84.68 50.14,3.34 88.06,46.67 84.71,96.81 z m 1100.14,1477.93 c -0.49,1.25 -1.96,1.81 -3.16,1.25 -1.23,-0.58 -1.72,-1.97 -1.2,-3.21 0.53,-1.21 1.99,-1.75 3.17,-1.21 1.21,0.54 1.79,1.98 1.19,3.17 z m -147.43,-187.29 c -2.24,5.83 -8.76,8.73 -14.54,6.46 -5.85,-2.19 -8.75,-8.66 -6.5,-14.52 2.24,-5.84 8.74,-8.72 14.57,-6.48 5.78,2.22 8.7,8.75 6.47,14.54 z m -164.29,-181.09 c -3.38,10.59 -14.67,16.41 -25.27,13.07 -10.61,-3.36 -16.46,-14.69 -13.09,-25.3 3.37,-10.58 14.69,-16.44 25.24,-13.08 10.63,3.35 16.48,14.68 13.12,25.31 z m -180.86,-173.65 c -3.99,15.49 -19.77,24.87 -35.29,20.94 -15.49,-3.97 -24.87,-19.72 -20.93,-35.27 3.95,-15.51 19.75,-24.88 35.25,-20.89 15.54,3.92 24.91,19.67 20.97,35.22 z m -197.15,-164.77 c -3.98,20.52 -23.85,33.91 -44.38,29.95 -20.51,-3.98 -33.92,-23.85 -29.95,-44.33 4,-20.51 23.87,-33.93 44.37,-29.96 20.5,3.94 33.94,23.81 29.96,44.34 z m -212.99,-154.65 c -3.36,25.54 -26.88,43.53 -52.44,40.1 -25.57,-3.46 -43.54,-26.94 -40.1,-52.49 3.43,-25.56 26.93,-43.52 52.49,-40.11 25.59,3.43 43.51,26.93 40.05,52.5 z m -228.17,-143.18 c -2.31,30.58 -28.99,53.51 -59.57,51.21 -30.6,-2.3 -53.53,-28.99 -51.24,-59.56 2.29,-30.63 28.96,-53.55 59.57,-51.22 30.58,2.3 53.53,28.94 51.24,59.57 z m -242.9,-130.54 c -0.55,35.57 -29.89,63.91 -65.46,63.32 -35.59,-0.6 -63.92,-29.94 -63.34,-65.51 0.62,-35.53 29.92,-63.91 65.53,-63.31 35.55,0.6 63.88,29.92 63.27,65.5 z m 587.77,898.76 c -0.27,1.31 -1.52,2.14 -2.85,1.88 -1.29,-0.26 -2.17,-1.53 -1.87,-2.87 0.28,-1.3 1.54,-2.15 2.84,-1.86 1.28,0.26 2.15,1.53 1.88,2.85 z m -184.41,-150.26 c -0.87,6.17 -6.55,10.43 -12.72,9.56 -6.2,-0.88 -10.48,-6.54 -9.58,-12.75 0.86,-6.17 6.57,-10.44 12.73,-9.58 6.18,0.91 10.47,6.64 9.57,12.77 z m -199.49,-140.53 c -0.92,11.06 -10.62,19.27 -21.71,18.36 -11.08,-0.94 -19.34,-10.66 -18.41,-21.76 0.94,-11.04 10.63,-19.27 21.78,-18.35 11.06,0.94 19.27,10.66 18.34,21.75 z m -214.03,-129.57 c -0.44,15.99 -13.72,28.65 -29.73,28.21 -16,-0.4 -28.63,-13.68 -28.23,-29.69 0.39,-16.01 13.69,-28.69 29.71,-28.27 16,0.43 28.63,13.74 28.25,29.75 z m -228.01,-117.46 c 0.71,20.92 -15.68,38.41 -36.58,39.1 -20.89,0.67 -38.38,-15.71 -39.09,-36.6 -0.68,-20.89 15.69,-38.34 36.56,-39.05 20.93,-0.68 38.39,15.71 39.11,36.55 z m 10.75,482.52 c 0.03,1.32 -1.02,2.43 -2.37,2.48 -1.29,0.03 -2.42,-1 -2.46,-2.33 -0.06,-1.36 1.02,-2.47 2.36,-2.5 1.35,-0.03 2.42,1.02 2.47,2.35 z m -212.28,-106.11 c 0.53,6.21 -4.08,11.67 -10.28,12.17 -6.23,0.5 -11.66,-4.08 -12.22,-10.31 -0.51,-6.21 4.12,-11.64 10.35,-12.18 6.17,-0.53 11.63,4.1 12.15,10.32 z m -276.94,-516.23 c -31.84,-15.98 -44.64,-54.73 -28.68,-86.51 15.97,-31.76 54.72,-44.6 86.46,-28.63 31.82,15.98 44.63,54.71 28.65,86.48 -15.93,31.81 -54.65,44.62 -86.43,28.66 z m 215.91,-182.55 c -37.16,-16.07 -54.25,-59.21 -38.24,-96.35 16.06,-37.14 59.18,-54.25 96.36,-38.21 37.08,16.02 54.26,59.13 38.19,96.28 -16.03,37.18 -59.15,54.3 -96.31,38.28 z m 207.91,-200.81 c -42.56,-15.56 -64.58,-62.68 -49.06,-105.3 15.56,-42.6 62.65,-64.57 105.27,-49.05 42.65,15.51 64.61,62.65 49.1,105.27 -15.55,42.59 -62.68,64.57 -105.31,49.08 z m 198.5,-218.75 c -48.15,-14.44 -75.48,-65.13 -61.08,-113.27 14.45,-48.11 65.16,-75.46 113.29,-61.04 48.12,14.43 75.46,65.15 61.05,113.28 -14.43,48.14 -65.15,75.46 -113.26,61.03 z m 187.62,-236.19 c -53.64,-12.74 -86.83,-66.54 -74.1,-120.17 12.75,-53.68 66.52,-86.86 120.19,-74.1 53.67,12.73 86.82,66.53 74.09,120.18 -12.72,53.64 -66.5,86.85 -120.18,74.09 z m 175.44,-253.12 c -59.1,-10.43 -98.6,-66.82 -88.14,-125.94 10.41,-59.11 66.81,-98.55 125.92,-88.12 59.12,10.41 98.62,66.84 88.17,125.92 -10.44,59.12 -66.82,98.61 -125.95,88.14 z m 161.91,-269.41 c -64.53,-7.54 -110.65,-65.94 -103.11,-130.42 7.58,-64.49 65.96,-110.63 130.43,-103.08 64.52,7.55 110.62,65.98 103.11,130.46 -7.56,64.45 -65.96,110.57 -130.43,103.04 z m -1365.24,989.97 c -19.11,-8.44 -27.76,-30.79 -19.36,-49.9 8.49,-19.14 30.81,-27.8 49.94,-19.35 19.13,8.46 27.8,30.8 19.33,49.91 -8.45,19.13 -30.83,27.78 -49.91,19.34 z m 197.86,-174.19 c -24.12,-8.99 -36.41,-35.91 -27.38,-60.07 9.02,-24.17 35.96,-36.46 60.11,-27.4 24.14,8.99 36.4,35.9 27.39,60.06 -9.04,24.17 -35.95,36.43 -60.12,27.41 z m 190.08,-191.55 c -29.32,-9.03 -45.75,-40.18 -36.68,-69.46 9.04,-29.34 40.14,-45.76 69.44,-36.71 29.32,9.06 45.75,40.14 36.71,69.48 -9.05,29.33 -40.14,45.72 -69.47,36.69 z m 180.89,-208.6 c -34.54,-8.53 -55.63,-43.38 -47.15,-77.96 8.51,-34.53 43.37,-55.66 77.93,-47.13 34.54,8.49 55.64,43.37 47.16,77.94 -8.51,34.54 -43.41,55.64 -77.94,47.15 z m 170.38,-225.23 c -39.79,-7.38 -66.09,-45.57 -58.7,-85.37 7.37,-39.77 45.54,-66.09 85.4,-58.74 39.75,7.41 66.04,45.65 58.68,85.38 -7.37,39.83 -45.61,66.1 -85.38,58.73 z m 158.48,-241.28 c -44.97,-5.65 -76.88,-46.69 -71.24,-91.7 5.68,-45.01 46.73,-76.91 91.73,-71.26 45.02,5.66 76.91,46.73 71.28,91.72 -5.68,45.01 -46.71,76.91 -91.77,71.24 z m 145.42,-256.69 c -50.14,-3.34 -88.07,-46.71 -84.71,-96.87 3.34,-50.12 46.71,-88.02 96.83,-84.67 50.14,3.31 88.07,46.72 84.69,96.83 -3.33,50.14 -46.67,88.07 -96.81,84.71 z M 891.008,4283.94 c -1.258,-0.5 -1.797,-1.96 -1.258,-3.16 0.586,-1.23 1.988,-1.72 3.219,-1.22 1.215,0.55 1.75,2 1.207,3.19 -0.539,1.21 -1.969,1.79 -3.168,1.19 z m 187.302,-147.43 c -5.84,-2.24 -8.73,-8.76 -6.47,-14.54 2.19,-5.85 8.66,-8.76 14.51,-6.51 5.84,2.26 8.73,8.73 6.49,14.56 -2.22,5.79 -8.75,8.7 -14.53,6.49 z M 1259.4,3972.2 c -10.61,-3.36 -16.42,-14.66 -13.08,-25.25 3.36,-10.61 14.7,-16.46 25.31,-13.1 10.57,3.36 16.44,14.69 13.08,25.25 -3.37,10.62 -14.7,16.47 -25.31,13.1 z m 173.64,-180.86 c -15.5,-3.97 -24.88,-19.75 -20.94,-35.27 3.97,-15.49 19.72,-24.88 35.28,-20.94 15.49,3.95 24.88,19.75 20.88,35.26 -3.92,15.54 -19.67,24.91 -35.22,20.95 z m 164.77,-197.14 c -20.52,-3.97 -33.9,-23.84 -29.94,-44.38 3.96,-20.5 23.84,-33.91 44.32,-29.95 20.5,3.99 33.93,23.88 29.95,44.37 -3.93,20.49 -23.81,33.94 -44.33,29.96 z m 154.65,-212.98 c -25.54,-3.38 -43.53,-26.89 -40.09,-52.44 3.45,-25.58 26.93,-43.55 52.48,-40.1 25.55,3.44 43.52,26.93 40.11,52.48 -3.44,25.59 -26.93,43.52 -52.5,40.06 z m 143.17,-228.19 c -30.57,-2.3 -53.51,-28.98 -51.2,-59.57 2.3,-30.59 28.98,-53.51 59.56,-51.23 30.63,2.3 53.54,28.97 51.22,59.58 -2.29,30.58 -28.95,53.51 -59.58,51.22 z m 130.54,-242.88 c -35.56,-0.55 -63.9,-29.9 -63.3,-65.46 0.58,-35.59 29.93,-63.93 65.49,-63.33 35.54,0.61 63.92,29.91 63.31,65.51 -0.6,35.55 -29.92,63.89 -65.5,63.28 z m -898.74,587.77 c -1.31,-0.29 -2.15,-1.52 -1.89,-2.85 0.26,-1.29 1.53,-2.16 2.86,-1.88 1.32,0.27 2.15,1.54 1.86,2.83 -0.25,1.3 -1.52,2.16 -2.83,1.9 z m 150.26,-184.42 c -6.19,-0.88 -10.44,-6.55 -9.57,-12.71 0.87,-6.19 6.54,-10.49 12.75,-9.59 6.16,0.87 10.44,6.58 9.57,12.74 -0.89,6.17 -6.63,10.46 -12.75,9.56 z m 140.52,-199.48 c -11.05,-0.93 -19.27,-10.63 -18.37,-21.71 0.95,-11.07 10.67,-19.35 21.77,-18.41 11.05,0.94 19.26,10.63 18.35,21.77 -0.95,11.07 -10.66,19.28 -21.75,18.35 z m 129.58,-214.04 c -16,-0.44 -28.66,-13.71 -28.22,-29.72 0.4,-16 13.68,-28.63 29.69,-28.23 16,0.38 28.68,13.68 28.27,29.71 -0.43,15.99 -13.74,28.63 -29.74,28.24 z m 117.44,-228.02 c -20.9,0.72 -38.4,-15.67 -39.09,-36.57 -0.68,-20.88 15.71,-38.39 36.6,-39.08 20.88,-0.69 38.34,15.69 39.05,36.56 0.68,20.92 -15.71,38.4 -36.56,39.09 z m -482.51,10.75 c -1.32,0.03 -2.44,-1 -2.48,-2.35 -0.03,-1.3 1,-2.42 2.33,-2.47 1.37,-0.05 2.47,1.02 2.49,2.36 0.04,1.35 -1.01,2.42 -2.34,2.46 z m 106.11,-212.26 c -6.2,0.52 -11.66,-4.09 -12.16,-10.28 -0.5,-6.25 4.08,-11.67 10.3,-12.21 6.21,-0.52 11.64,4.11 12.18,10.33 0.54,6.17 -4.09,11.63 -10.32,12.16 z m 516.22,-276.96 c 15.98,-31.82 54.74,-44.63 86.52,-28.68 31.76,15.97 44.6,54.74 28.62,86.47 -15.98,31.81 -54.71,44.63 -86.48,28.65 -31.81,-15.93 -44.62,-54.66 -28.66,-86.44 z m 182.56,215.91 c 16.06,-37.16 59.2,-54.25 96.35,-38.23 37.13,16.07 54.25,59.17 38.2,96.36 -16.01,37.08 -59.12,54.25 -96.28,38.2 -37.17,-16.04 -54.3,-59.16 -38.27,-96.33 z m 200.81,207.91 c 15.55,-42.56 62.67,-64.57 105.3,-49.04 42.61,15.54 64.56,62.64 49.04,105.26 -15.51,42.65 -62.65,64.61 -105.27,49.1 -42.59,-15.54 -64.57,-62.68 -49.07,-105.32 z m 218.74,198.51 c 14.43,-48.15 65.13,-75.47 113.26,-61.08 48.13,14.46 75.48,65.16 61.05,113.29 -14.43,48.11 -65.15,75.45 -113.27,61.06 -48.15,-14.44 -75.47,-65.16 -61.04,-113.27 z m 236.19,187.62 c 12.74,-53.64 66.53,-86.82 120.18,-74.11 53.68,12.76 86.86,66.53 74.1,120.2 -12.74,53.66 -66.54,86.82 -120.19,74.08 -53.64,-12.71 -86.85,-66.49 -74.09,-120.17 z m 253.12,175.43 c 10.44,-59.07 66.83,-98.59 125.95,-88.13 59.1,10.41 98.53,66.81 88.12,125.93 -10.41,59.11 -66.85,98.6 -125.93,88.15 -59.12,-10.43 -98.6,-66.81 -88.14,-125.95 z m 269.41,161.92 c 7.54,-64.53 65.95,-110.66 130.43,-103.11 64.48,7.58 110.62,65.94 103.08,130.43 -7.55,64.52 -65.98,110.62 -130.46,103.11 -64.47,-7.57 -110.59,-65.97 -103.05,-130.43 z M 2175.91,1975.54 c 8.45,-19.11 30.79,-27.75 49.9,-19.35 19.15,8.49 27.8,30.8 19.35,49.94 -8.46,19.12 -30.79,27.79 -49.91,19.33 -19.12,-8.45 -27.77,-30.83 -19.34,-49.92 z m 174.18,197.88 c 9,-24.14 35.93,-36.43 60.09,-27.39 24.16,9.02 36.46,35.95 27.4,60.1 -9,24.16 -35.91,36.4 -60.06,27.4 -24.18,-9.04 -36.45,-35.95 -27.43,-60.11 z m 191.56,190.07 c 9.05,-29.33 40.18,-45.74 69.46,-36.68 29.33,9.04 45.76,40.15 36.71,69.43 -9.07,29.33 -40.14,45.77 -69.48,36.72 -29.32,-9.05 -45.72,-40.14 -36.69,-69.47 z m 208.61,180.89 c 8.52,-34.54 43.38,-55.64 77.95,-47.15 34.54,8.5 55.67,43.36 47.13,77.93 -8.49,34.54 -43.37,55.65 -77.94,47.17 -34.54,-8.53 -55.63,-43.42 -47.14,-77.95 z m 225.22,170.37 c 7.39,-39.77 45.57,-66.08 85.36,-58.7 39.78,7.38 66.12,45.56 58.75,85.42 -7.42,39.75 -45.64,66.03 -85.39,58.66 -39.82,-7.35 -66.08,-45.6 -58.72,-85.38 z m 241.28,158.48 c 5.64,-44.95 46.7,-76.88 91.71,-71.24 45,5.7 76.91,46.73 71.27,91.74 -5.67,45.02 -46.73,76.91 -91.73,71.28 -45.01,-5.69 -76.92,-46.71 -71.25,-91.78 z m 256.7,145.42 c 3.33,-50.14 46.71,-88.06 96.86,-84.71 50.12,3.34 88.01,46.72 84.68,96.84 -3.32,50.14 -46.71,88.07 -96.83,84.69 -50.15,-3.33 -88.09,-46.66 -84.71,-96.82 z M 2373.3,1540.72 c 0.5,-1.25 1.96,-1.8 3.16,-1.25 1.23,0.59 1.73,1.99 1.21,3.21 -0.53,1.22 -1.98,1.75 -3.17,1.2 -1.22,-0.52 -1.79,-1.96 -1.2,-3.16 z m 147.43,187.31 c 2.24,-5.84 8.76,-8.74 14.53,-6.47 5.87,2.18 8.78,8.67 6.52,14.5 -2.26,5.85 -8.72,8.74 -14.56,6.5 -5.79,-2.21 -8.69,-8.75 -6.49,-14.53 z m 164.32,181.09 c 3.35,-10.6 14.65,-16.43 25.24,-13.08 10.61,3.35 16.47,14.7 13.1,25.31 -3.37,10.57 -14.69,16.43 -25.24,13.08 -10.64,-3.36 -16.48,-14.7 -13.1,-25.31 z m 180.86,173.65 c 3.95,-15.52 19.74,-24.89 35.25,-20.96 15.5,3.97 24.89,19.73 20.95,35.29 -3.95,15.5 -19.75,24.87 -35.26,20.88 -15.53,-3.91 -24.91,-19.67 -20.94,-35.21 z m 197.14,164.76 c 3.96,-20.51 23.83,-33.9 44.37,-29.94 20.5,3.97 33.93,23.83 29.95,44.32 -4,20.51 -23.87,33.93 -44.36,29.96 -20.5,-3.95 -33.94,-23.81 -29.96,-44.34 z m 212.98,154.66 c 3.37,-25.55 26.88,-43.55 52.44,-40.11 25.57,3.45 43.54,26.93 40.09,52.49 -3.44,25.56 -26.93,43.52 -52.48,40.11 -25.58,-3.42 -43.52,-26.93 -40.05,-52.49 z m 228.17,143.18 c 2.31,-30.6 28.99,-53.52 59.59,-51.22 30.57,2.3 53.52,28.99 51.22,59.56 -2.3,30.63 -28.97,53.54 -59.59,51.23 -30.56,-2.31 -53.49,-28.96 -51.22,-59.57 z m 242.88,130.54 c 0.57,-35.59 29.91,-63.91 65.48,-63.32 35.58,0.58 63.92,29.93 63.33,65.49 -0.62,35.54 -29.9,63.92 -65.52,63.3 -35.55,-0.59 -63.88,-29.9 -63.29,-65.47 z m -587.77,-898.76 c 0.29,-1.31 1.53,-2.15 2.87,-1.88 1.28,0.25 2.15,1.52 1.88,2.86 -0.28,1.31 -1.56,2.15 -2.85,1.86 -1.29,-0.27 -2.14,-1.54 -1.9,-2.84 z m 184.42,150.25 c 0.89,-6.16 6.56,-10.43 12.72,-9.55 6.19,0.88 10.49,6.52 9.6,12.73 -0.87,6.17 -6.59,10.44 -12.75,9.57 -6.17,-0.89 -10.45,-6.62 -9.57,-12.75 z m 199.51,140.54 c 0.91,-11.07 10.62,-19.28 21.7,-18.38 11.06,0.96 19.34,10.66 18.39,21.76 -0.92,11.05 -10.63,19.27 -21.75,18.36 -11.07,-0.94 -19.27,-10.66 -18.34,-21.74 z m 214.03,129.57 c 0.43,-16 13.72,-28.65 29.72,-28.23 16,0.41 28.63,13.7 28.22,29.71 -0.38,16.01 -13.69,28.68 -29.69,28.25 -16,-0.42 -28.65,-13.74 -28.25,-29.73 z m 228.01,117.44 c -0.71,-20.91 15.67,-38.4 36.57,-39.09 20.9,-0.67 38.39,15.72 39.08,36.6 0.68,20.88 -15.68,38.33 -36.56,39.04 -20.93,0.69 -38.39,-15.7 -39.09,-36.55 z m -10.76,-482.51 c -0.02,-1.32 1.02,-2.42 2.36,-2.48 1.31,-0.03 2.42,1 2.48,2.33 0.05,1.36 -1.03,2.46 -2.37,2.49 -1.34,0.03 -2.42,-1 -2.47,-2.34 z m 224.43,116.42 c 6.23,-0.52 10.86,-5.95 10.34,-12.16 -0.55,-6.23 -5.97,-10.81 -12.21,-10.32 -6.2,0.5 -10.81,5.96 -10.28,12.16 0.52,6.23 5.98,10.86 12.15,10.32 z"
         transform="translate(0,2.5000001e-5)"
         id="path263-2" /></clipPath></defs><g
     inkscape:groupmode="layer"
     id="layer3"
     inkscape:label="Layer 1"
     transform="translate(1030.6697,-5.8802929)"><path
       id="path258-3"
       d="m 4463.75,2454.77 c 31.83,15.98 44.63,54.73 28.67,86.52 -15.96,31.76 -54.72,44.61 -86.47,28.63 -31.79,-15.98 -44.61,-54.71 -28.65,-86.49 15.94,-31.81 54.67,-44.6 86.45,-28.66 z m -215.92,182.55 c 37.17,16.08 54.25,59.22 38.24,96.35 -16.07,37.15 -59.16,54.26 -96.35,38.22 -37.09,-16.02 -54.26,-59.13 -38.19,-96.29 16.02,-37.17 59.16,-54.29 96.3,-38.28 z m -207.89,200.82 c 42.56,15.56 64.56,62.68 49.04,105.3 -15.55,42.6 -62.65,64.57 -105.27,49.04 -42.66,-15.51 -64.61,-62.65 -49.09,-105.27 15.54,-42.57 62.66,-64.58 105.32,-49.07 z m -198.51,218.75 c 48.15,14.44 75.47,65.12 61.07,113.26 -14.45,48.12 -65.15,75.46 -113.28,61.05 -48.12,-14.42 -75.46,-65.15 -61.06,-113.28 14.44,-48.14 65.16,-75.47 113.27,-61.03 z m -187.62,236.19 c 53.63,12.73 86.82,66.53 74.09,120.17 -12.75,53.68 -66.53,86.86 -120.19,74.1 -53.67,-12.73 -86.81,-66.53 -74.09,-120.18 12.72,-53.65 66.51,-86.85 120.19,-74.09 z m -175.45,253.12 c 59.1,10.43 98.61,66.82 88.16,125.94 -10.43,59.11 -66.83,98.55 -125.93,88.12 -59.12,-10.41 -98.61,-66.84 -88.17,-125.93 10.44,-59.11 66.82,-98.59 125.94,-88.13 z m -161.9,269.41 c 64.53,7.54 110.64,65.94 103.1,130.42 -7.57,64.49 -65.94,110.63 -130.43,103.08 -64.52,-7.55 -110.62,-65.98 -103.1,-130.46 7.56,-64.45 65.95,-110.58 130.43,-103.04 z m 1365.23,-989.98 c 19.12,8.45 27.77,30.8 19.38,49.9 -8.51,19.16 -30.81,27.82 -49.95,19.36 -19.14,-8.47 -27.8,-30.79 -19.33,-49.9 8.45,-19.14 30.82,-27.79 49.9,-19.36 z m -197.86,174.19 c 24.13,9.01 36.41,35.93 27.39,60.08 -9.03,24.16 -35.96,36.46 -60.1,27.4 -24.16,-9 -36.41,-35.91 -27.4,-60.06 9.04,-24.19 35.94,-36.44 60.11,-27.42 z m -190.08,191.55 c 29.33,9.05 45.76,40.19 36.67,69.48 -9.02,29.32 -40.12,45.75 -69.42,36.7 -29.33,-9.07 -45.76,-40.14 -36.71,-69.5 9.04,-29.3 40.13,-45.7 69.46,-36.68 z m -180.88,208.61 c 34.54,8.52 55.63,43.38 47.13,77.96 -8.49,34.53 -43.35,55.66 -77.92,47.13 -34.54,-8.49 -55.64,-43.37 -47.16,-77.94 8.52,-34.54 43.41,-55.64 77.95,-47.15 z m -170.38,225.23 c 39.79,7.38 66.1,45.57 58.71,85.36 -7.4,39.78 -45.56,66.1 -85.41,58.74 -39.76,-7.4 -66.04,-45.64 -58.7,-85.38 7.39,-39.82 45.63,-66.09 85.4,-58.72 z m -158.48,241.28 c 44.97,5.65 76.87,46.69 71.25,91.7 -5.7,45.01 -46.75,76.92 -91.74,71.27 -45.01,-5.67 -76.91,-46.74 -71.3,-91.73 5.7,-45.01 46.73,-76.92 91.79,-71.24 z m -145.42,256.7 c 50.14,3.34 88.07,46.7 84.71,96.85 -3.34,50.13 -46.72,88.03 -96.85,84.67 -50.12,-3.31 -88.06,-46.71 -84.68,-96.82 3.34,-50.14 46.66,-88.07 96.82,-84.7 z M 5116.53,3023.03 c 1.24,0.5 1.8,1.96 1.24,3.16 -0.59,1.23 -1.98,1.73 -3.2,1.21 -1.24,-0.55 -1.76,-1.98 -1.23,-3.18 0.54,-1.2 1.99,-1.79 3.19,-1.19 z m -187.3,147.43 c 5.83,2.24 8.72,8.76 6.46,14.54 -2.2,5.85 -8.67,8.76 -14.5,6.5 -5.86,-2.25 -8.75,-8.73 -6.49,-14.56 2.21,-5.78 8.73,-8.7 14.53,-6.48 z m -181.11,164.3 c 10.61,3.37 16.43,14.67 13.09,25.26 -3.35,10.61 -14.7,16.46 -25.31,13.1 -10.57,-3.37 -16.43,-14.69 -13.08,-25.25 3.36,-10.63 14.69,-16.48 25.3,-13.11 z m -173.63,180.87 c 15.5,3.97 24.87,19.75 20.93,35.27 -3.97,15.47 -19.71,24.88 -35.28,20.93 -15.49,-3.94 -24.86,-19.74 -20.88,-35.25 3.93,-15.53 19.68,-24.91 35.23,-20.95 z m -164.79,197.14 c 20.54,3.97 33.92,23.84 29.96,44.38 -3.97,20.49 -23.84,33.92 -44.32,29.95 -20.5,-4 -33.95,-23.88 -29.96,-44.37 3.93,-20.51 23.81,-33.94 44.32,-29.96 z m -154.63,212.98 c 25.54,3.38 43.53,26.88 40.09,52.44 -3.45,25.58 -26.93,43.54 -52.48,40.1 -25.56,-3.43 -43.52,-26.93 -40.11,-52.49 3.43,-25.58 26.93,-43.51 52.5,-40.05 z m -143.19,228.18 c 30.6,2.3 53.53,28.98 51.2,59.58 -2.28,30.58 -28.97,53.51 -59.54,51.22 -30.64,-2.29 -53.54,-28.96 -51.22,-59.58 2.28,-30.57 28.93,-53.5 59.56,-51.22 z m -130.53,242.88 c 35.56,0.57 63.9,29.91 63.3,65.47 -0.57,35.59 -29.93,63.93 -65.48,63.34 -35.54,-0.62 -63.93,-29.91 -63.32,-65.52 0.6,-35.56 29.92,-63.89 65.5,-63.29 z m 898.75,-587.76 c 1.31,0.28 2.15,1.51 1.88,2.85 -0.26,1.29 -1.53,2.16 -2.86,1.88 -1.31,-0.28 -2.15,-1.55 -1.85,-2.84 0.24,-1.29 1.52,-2.15 2.83,-1.89 z m -150.26,184.4 c 6.18,0.89 10.43,6.56 9.56,12.73 -0.88,6.2 -6.53,10.48 -12.74,9.59 -6.17,-0.87 -10.43,-6.58 -9.58,-12.74 0.9,-6.18 6.64,-10.46 12.76,-9.58 z m -140.53,199.51 c 11.06,0.91 19.28,10.62 18.38,21.7 -0.96,11.08 -10.67,19.34 -21.77,18.41 -11.04,-0.93 -19.26,-10.64 -18.37,-21.77 0.96,-11.06 10.67,-19.28 21.76,-18.34 z m -129.58,214.03 c 16.01,0.43 28.65,13.72 28.22,29.72 -0.4,16.01 -13.67,28.63 -29.69,28.23 -16,-0.38 -28.68,-13.69 -28.27,-29.7 0.43,-16 13.74,-28.64 29.74,-28.25 z M 4342.28,4635 c 20.92,-0.72 38.42,15.68 39.1,36.58 0.68,20.88 -15.7,38.38 -36.59,39.08 -20.9,0.69 -38.34,-15.69 -39.05,-36.56 -0.69,-20.93 15.71,-38.39 36.54,-39.1 z m 482.53,-10.75 c 1.31,-0.04 2.43,1.01 2.48,2.36 0.03,1.29 -1.01,2.43 -2.34,2.46 -1.36,0.06 -2.45,-1.02 -2.48,-2.35 -0.04,-1.35 1,-2.43 2.34,-2.47 z m -106.12,212.28 c 6.21,-0.54 11.67,4.07 12.17,10.27 0.49,6.23 -4.09,11.66 -10.3,12.22 -6.22,0.51 -11.64,-4.12 -12.19,-10.35 -0.53,-6.16 4.1,-11.62 10.32,-12.14 z m -516.22,276.94 c -15.98,31.84 -54.73,44.64 -86.53,28.68 -31.76,-15.97 -44.6,-54.72 -28.62,-86.47 15.98,-31.81 54.72,-44.62 86.49,-28.65 31.8,15.94 44.62,54.66 28.66,86.44 z m -182.55,-215.91 c -16.08,37.16 -59.21,54.25 -96.35,38.24 -37.15,-16.07 -54.26,-59.18 -38.21,-96.36 16.01,-37.09 59.13,-54.26 96.28,-38.19 37.17,16.03 54.29,59.15 38.28,96.31 z m -200.81,-207.9 c -15.57,42.55 -62.68,64.57 -105.31,49.05 -42.59,-15.55 -64.57,-62.65 -49.04,-105.28 15.51,-42.65 62.65,-64.61 105.27,-49.09 42.59,15.55 64.57,62.67 49.08,105.32 z m -218.76,-198.51 c -14.43,48.15 -65.12,75.47 -113.26,61.08 -48.12,-14.46 -75.47,-65.16 -61.03,-113.29 14.41,-48.12 65.13,-75.46 113.27,-61.06 48.13,14.45 75.45,65.16 61.02,113.27 z m -236.18,-187.62 c -12.73,53.64 -66.54,86.82 -120.18,74.09 -53.67,-12.73 -86.86,-66.52 -74.09,-120.18 12.72,-53.67 66.51,-86.82 120.18,-74.09 53.65,12.72 86.85,66.51 74.09,120.18 z m -253.12,-175.45 c -10.43,59.1 -66.82,98.61 -125.95,88.15 -59.1,-10.42 -98.55,-66.8 -88.11,-125.92 10.4,-59.13 66.84,-98.6 125.93,-88.16 59.11,10.44 98.58,66.81 88.13,125.93 z m -269.41,-161.9 c -7.54,64.53 -65.94,110.65 -130.43,103.1 -64.49,-7.57 -110.62,-65.94 -103.07,-130.42 7.54,-64.53 65.98,-110.62 130.45,-103.11 64.45,7.57 110.58,65.97 103.05,130.43 z m 989.97,1365.24 c -8.44,19.11 -30.79,27.76 -49.91,19.37 -19.14,-8.5 -27.81,-30.81 -19.35,-49.95 8.48,-19.13 30.8,-27.8 49.91,-19.32 19.13,8.45 27.78,30.82 19.35,49.9 z m -174.2,-197.86 c -9,24.13 -35.9,36.41 -60.06,27.38 -24.17,-9.02 -36.47,-35.96 -27.4,-60.1 9,-24.15 35.9,-36.41 60.06,-27.4 24.17,9.03 36.42,35.95 27.4,60.12 z m -191.55,-190.09 c -9.02,29.33 -40.18,45.76 -69.47,36.68 -29.33,-9.03 -45.74,-40.13 -36.69,-69.42 9.05,-29.34 40.13,-45.77 69.47,-36.72 29.33,9.05 45.72,40.14 36.69,69.46 z m -208.59,-180.88 c -8.53,34.54 -43.39,55.63 -77.97,47.14 -34.52,-8.49 -55.66,-43.37 -47.13,-77.94 8.5,-34.52 43.36,-55.63 77.95,-47.14 34.53,8.52 55.63,43.4 47.15,77.94 z m -225.24,-170.38 c -7.37,39.79 -45.56,66.09 -85.36,58.71 -39.78,-7.38 -66.09,-45.56 -58.73,-85.41 7.39,-39.76 45.64,-66.04 85.38,-58.69 39.81,7.37 66.09,45.62 58.71,85.39 z m -241.27,-158.48 c -5.66,44.97 -46.7,76.88 -91.7,71.25 -45.01,-5.7 -76.92,-46.74 -71.26,-91.74 5.65,-45.01 46.73,-76.91 91.71,-71.28 45.01,5.68 76.92,46.71 71.25,91.77 z m -256.69,-145.42 c -3.36,50.13 -46.71,88.06 -96.87,84.71 -50.12,-3.33 -88.03,-46.71 -84.68,-96.84 3.33,-50.13 46.73,-88.06 96.84,-84.68 50.14,3.34 88.06,46.67 84.71,96.81 z m 1100.14,1477.93 c -0.49,1.25 -1.96,1.81 -3.16,1.25 -1.23,-0.58 -1.72,-1.97 -1.2,-3.21 0.53,-1.21 1.99,-1.75 3.17,-1.21 1.21,0.54 1.79,1.98 1.19,3.17 z m -147.43,-187.29 c -2.24,5.83 -8.76,8.73 -14.54,6.46 -5.85,-2.19 -8.75,-8.66 -6.5,-14.52 2.24,-5.84 8.74,-8.72 14.57,-6.48 5.78,2.22 8.7,8.75 6.47,14.54 z m -164.29,-181.09 c -3.38,10.59 -14.67,16.41 -25.27,13.07 -10.61,-3.36 -16.46,-14.69 -13.09,-25.3 3.37,-10.58 14.69,-16.44 25.24,-13.08 10.63,3.35 16.48,14.68 13.12,25.31 z m -180.86,-173.65 c -3.99,15.49 -19.77,24.87 -35.29,20.94 -15.49,-3.97 -24.87,-19.72 -20.93,-35.27 3.95,-15.51 19.75,-24.88 35.25,-20.89 15.54,3.92 24.91,19.67 20.97,35.22 z m -197.15,-164.77 c -3.98,20.52 -23.85,33.91 -44.38,29.95 -20.51,-3.98 -33.92,-23.85 -29.95,-44.33 4,-20.51 23.87,-33.93 44.37,-29.96 20.5,3.94 33.94,23.81 29.96,44.34 z m -212.99,-154.65 c -3.36,25.54 -26.88,43.53 -52.44,40.1 -25.57,-3.46 -43.54,-26.94 -40.1,-52.49 3.43,-25.56 26.93,-43.52 52.49,-40.11 25.59,3.43 43.51,26.93 40.05,52.5 z m -228.17,-143.18 c -2.31,30.58 -28.99,53.51 -59.57,51.21 -30.6,-2.3 -53.53,-28.99 -51.24,-59.56 2.29,-30.63 28.96,-53.55 59.57,-51.22 30.58,2.3 53.53,28.94 51.24,59.57 z m -242.9,-130.54 c -0.55,35.57 -29.89,63.91 -65.46,63.32 -35.59,-0.6 -63.92,-29.94 -63.34,-65.51 0.62,-35.53 29.92,-63.91 65.53,-63.31 35.55,0.6 63.88,29.92 63.27,65.5 z m 587.77,898.76 c -0.27,1.31 -1.52,2.14 -2.85,1.88 -1.29,-0.26 -2.17,-1.53 -1.87,-2.87 0.28,-1.3 1.54,-2.15 2.84,-1.86 1.28,0.26 2.15,1.53 1.88,2.85 z m -184.41,-150.26 c -0.87,6.17 -6.55,10.43 -12.72,9.56 -6.2,-0.88 -10.48,-6.54 -9.58,-12.75 0.86,-6.17 6.57,-10.44 12.73,-9.58 6.18,0.91 10.47,6.64 9.57,12.77 z m -199.49,-140.53 c -0.92,11.06 -10.62,19.27 -21.71,18.36 -11.08,-0.94 -19.34,-10.66 -18.41,-21.76 0.94,-11.04 10.63,-19.27 21.78,-18.35 11.06,0.94 19.27,10.66 18.34,21.75 z m -214.03,-129.57 c -0.44,15.99 -13.72,28.65 -29.73,28.21 -16,-0.4 -28.63,-13.68 -28.23,-29.69 0.39,-16.01 13.69,-28.69 29.71,-28.27 16,0.43 28.63,13.74 28.25,29.75 z m -228.01,-117.46 c 0.71,20.92 -15.68,38.41 -36.58,39.1 -20.89,0.67 -38.38,-15.71 -39.09,-36.6 -0.68,-20.89 15.69,-38.34 36.56,-39.05 20.93,-0.68 38.39,15.71 39.11,36.55 z m 10.75,482.52 c 0.03,1.32 -1.02,2.43 -2.37,2.48 -1.29,0.03 -2.42,-1 -2.46,-2.33 -0.06,-1.36 1.02,-2.47 2.36,-2.5 1.35,-0.03 2.42,1.02 2.47,2.35 z m -212.28,-106.11 c 0.53,6.21 -4.08,11.67 -10.28,12.17 -6.23,0.5 -11.66,-4.08 -12.22,-10.31 -0.51,-6.21 4.12,-11.64 10.35,-12.18 6.17,-0.53 11.63,4.1 12.15,10.32 z m -276.94,-516.23 c -31.84,-15.98 -44.64,-54.73 -28.68,-86.51 15.97,-31.76 54.72,-44.6 86.46,-28.63 31.82,15.98 44.63,54.71 28.65,86.48 -15.93,31.81 -54.65,44.62 -86.43,28.66 z m 215.91,-182.55 c -37.16,-16.07 -54.25,-59.21 -38.24,-96.35 16.06,-37.14 59.18,-54.25 96.36,-38.21 37.08,16.02 54.26,59.13 38.19,96.28 -16.03,37.18 -59.15,54.3 -96.31,38.28 z m 207.91,-200.81 c -42.56,-15.56 -64.58,-62.68 -49.06,-105.3 15.56,-42.6 62.65,-64.57 105.27,-49.05 42.65,15.51 64.61,62.65 49.1,105.27 -15.55,42.59 -62.68,64.57 -105.31,49.08 z m 198.5,-218.75 c -48.15,-14.44 -75.48,-65.13 -61.08,-113.27 14.45,-48.11 65.16,-75.46 113.29,-61.04 48.12,14.43 75.46,65.15 61.05,113.28 -14.43,48.14 -65.15,75.46 -113.26,61.03 z m 187.62,-236.19 c -53.64,-12.74 -86.83,-66.54 -74.1,-120.17 12.75,-53.68 66.52,-86.86 120.19,-74.1 53.67,12.73 86.82,66.53 74.09,120.18 -12.72,53.64 -66.5,86.85 -120.18,74.09 z m 175.44,-253.12 c -59.1,-10.43 -98.6,-66.82 -88.14,-125.94 10.41,-59.11 66.81,-98.55 125.92,-88.12 59.12,10.41 98.62,66.84 88.17,125.92 -10.44,59.12 -66.82,98.61 -125.95,88.14 z m 161.91,-269.41 c -64.53,-7.54 -110.65,-65.94 -103.11,-130.42 7.58,-64.49 65.96,-110.63 130.43,-103.08 64.52,7.55 110.62,65.98 103.11,130.46 -7.56,64.45 -65.96,110.57 -130.43,103.04 z m -1365.24,989.97 c -19.11,-8.44 -27.76,-30.79 -19.36,-49.9 8.49,-19.14 30.81,-27.8 49.94,-19.35 19.13,8.46 27.8,30.8 19.33,49.91 -8.45,19.13 -30.83,27.78 -49.91,19.34 z m 197.86,-174.19 c -24.12,-8.99 -36.41,-35.91 -27.38,-60.07 9.02,-24.17 35.96,-36.46 60.11,-27.4 24.14,8.99 36.4,35.9 27.39,60.06 -9.04,24.17 -35.95,36.43 -60.12,27.41 z m 190.08,-191.55 c -29.32,-9.03 -45.75,-40.18 -36.68,-69.46 9.04,-29.34 40.14,-45.76 69.44,-36.71 29.32,9.06 45.75,40.14 36.71,69.48 -9.05,29.33 -40.14,45.72 -69.47,36.69 z m 180.89,-208.6 c -34.54,-8.53 -55.63,-43.38 -47.15,-77.96 8.51,-34.53 43.37,-55.66 77.93,-47.13 34.54,8.49 55.64,43.37 47.16,77.94 -8.51,34.54 -43.41,55.64 -77.94,47.15 z m 170.38,-225.23 c -39.79,-7.38 -66.09,-45.57 -58.7,-85.37 7.37,-39.77 45.54,-66.09 85.4,-58.74 39.75,7.41 66.04,45.65 58.68,85.38 -7.37,39.83 -45.61,66.1 -85.38,58.73 z m 158.48,-241.28 c -44.97,-5.65 -76.88,-46.69 -71.24,-91.7 5.68,-45.01 46.73,-76.91 91.73,-71.26 45.02,5.66 76.91,46.73 71.28,91.72 -5.68,45.01 -46.71,76.91 -91.77,71.24 z m 145.42,-256.69 c -50.14,-3.34 -88.07,-46.71 -84.71,-96.87 3.34,-50.12 46.71,-88.02 96.83,-84.67 50.14,3.31 88.07,46.72 84.69,96.83 -3.33,50.14 -46.67,88.07 -96.81,84.71 z M 891.008,4283.94 c -1.258,-0.5 -1.797,-1.96 -1.258,-3.16 0.586,-1.23 1.988,-1.72 3.219,-1.22 1.215,0.55 1.75,2 1.207,3.19 -0.539,1.21 -1.969,1.79 -3.168,1.19 z m 187.302,-147.43 c -5.84,-2.24 -8.73,-8.76 -6.47,-14.54 2.19,-5.85 8.66,-8.76 14.51,-6.51 5.84,2.26 8.73,8.73 6.49,14.56 -2.22,5.79 -8.75,8.7 -14.53,6.49 z M 1259.4,3972.2 c -10.61,-3.36 -16.42,-14.66 -13.08,-25.25 3.36,-10.61 14.7,-16.46 25.31,-13.1 10.57,3.36 16.44,14.69 13.08,25.25 -3.37,10.62 -14.7,16.47 -25.31,13.1 z m 173.64,-180.86 c -15.5,-3.97 -24.88,-19.75 -20.94,-35.27 3.97,-15.49 19.72,-24.88 35.28,-20.94 15.49,3.95 24.88,19.75 20.88,35.26 -3.92,15.54 -19.67,24.91 -35.22,20.95 z m 164.77,-197.14 c -20.52,-3.97 -33.9,-23.84 -29.94,-44.38 3.96,-20.5 23.84,-33.91 44.32,-29.95 20.5,3.99 33.93,23.88 29.95,44.37 -3.93,20.49 -23.81,33.94 -44.33,29.96 z m 154.65,-212.98 c -25.54,-3.38 -43.53,-26.89 -40.09,-52.44 3.45,-25.58 26.93,-43.55 52.48,-40.1 25.55,3.44 43.52,26.93 40.11,52.48 -3.44,25.59 -26.93,43.52 -52.5,40.06 z m 143.17,-228.19 c -30.57,-2.3 -53.51,-28.98 -51.2,-59.57 2.3,-30.59 28.98,-53.51 59.56,-51.23 30.63,2.3 53.54,28.97 51.22,59.58 -2.29,30.58 -28.95,53.51 -59.58,51.22 z m 130.54,-242.88 c -35.56,-0.55 -63.9,-29.9 -63.3,-65.46 0.58,-35.59 29.93,-63.93 65.49,-63.33 35.54,0.61 63.92,29.91 63.31,65.51 -0.6,35.55 -29.92,63.89 -65.5,63.28 z m -898.74,587.77 c -1.31,-0.29 -2.15,-1.52 -1.89,-2.85 0.26,-1.29 1.53,-2.16 2.86,-1.88 1.32,0.27 2.15,1.54 1.86,2.83 -0.25,1.3 -1.52,2.16 -2.83,1.9 z m 150.26,-184.42 c -6.19,-0.88 -10.44,-6.55 -9.57,-12.71 0.87,-6.19 6.54,-10.49 12.75,-9.59 6.16,0.87 10.44,6.58 9.57,12.74 -0.89,6.17 -6.63,10.46 -12.75,9.56 z m 140.52,-199.48 c -11.05,-0.93 -19.27,-10.63 -18.37,-21.71 0.95,-11.07 10.67,-19.35 21.77,-18.41 11.05,0.94 19.26,10.63 18.35,21.77 -0.95,11.07 -10.66,19.28 -21.75,18.35 z m 129.58,-214.04 c -16,-0.44 -28.66,-13.71 -28.22,-29.72 0.4,-16 13.68,-28.63 29.69,-28.23 16,0.38 28.68,13.68 28.27,29.71 -0.43,15.99 -13.74,28.63 -29.74,28.24 z m 117.44,-228.02 c -20.9,0.72 -38.4,-15.67 -39.09,-36.57 -0.68,-20.88 15.71,-38.39 36.6,-39.08 20.88,-0.69 38.34,15.69 39.05,36.56 0.68,20.92 -15.71,38.4 -36.56,39.09 z m -482.51,10.75 c -1.32,0.03 -2.44,-1 -2.48,-2.35 -0.03,-1.3 1,-2.42 2.33,-2.47 1.37,-0.05 2.47,1.02 2.49,2.36 0.04,1.35 -1.01,2.42 -2.34,2.46 z m 106.11,-212.26 c -6.2,0.52 -11.66,-4.09 -12.16,-10.28 -0.5,-6.25 4.08,-11.67 10.3,-12.21 6.21,-0.52 11.64,4.11 12.18,10.33 0.54,6.17 -4.09,11.63 -10.32,12.16 z m 516.22,-276.96 c 15.98,-31.82 54.74,-44.63 86.52,-28.68 31.76,15.97 44.6,54.74 28.62,86.47 -15.98,31.81 -54.71,44.63 -86.48,28.65 -31.81,-15.93 -44.62,-54.66 -28.66,-86.44 z m 182.56,215.91 c 16.06,-37.16 59.2,-54.25 96.35,-38.23 37.13,16.07 54.25,59.17 38.2,96.36 -16.01,37.08 -59.12,54.25 -96.28,38.2 -37.17,-16.04 -54.3,-59.16 -38.27,-96.33 z m 200.81,207.91 c 15.55,-42.56 62.67,-64.57 105.3,-49.04 42.61,15.54 64.56,62.64 49.04,105.26 -15.51,42.65 -62.65,64.61 -105.27,49.1 -42.59,-15.54 -64.57,-62.68 -49.07,-105.32 z m 218.74,198.51 c 14.43,-48.15 65.13,-75.47 113.26,-61.08 48.13,14.46 75.48,65.16 61.05,113.29 -14.43,48.11 -65.15,75.45 -113.27,61.06 -48.15,-14.44 -75.47,-65.16 -61.04,-113.27 z m 236.19,187.62 c 12.74,-53.64 66.53,-86.82 120.18,-74.11 53.68,12.76 86.86,66.53 74.1,120.2 -12.74,53.66 -66.54,86.82 -120.19,74.08 -53.64,-12.71 -86.85,-66.49 -74.09,-120.17 z m 253.12,175.43 c 10.44,-59.07 66.83,-98.59 125.95,-88.13 59.1,10.41 98.53,66.81 88.12,125.93 -10.41,59.11 -66.85,98.6 -125.93,88.15 -59.12,-10.43 -98.6,-66.81 -88.14,-125.95 z m 269.41,161.92 c 7.54,-64.53 65.95,-110.66 130.43,-103.11 64.48,7.58 110.62,65.94 103.08,130.43 -7.55,64.52 -65.98,110.62 -130.46,103.11 -64.47,-7.57 -110.59,-65.97 -103.05,-130.43 z M 2175.91,1975.54 c 8.45,-19.11 30.79,-27.75 49.9,-19.35 19.15,8.49 27.8,30.8 19.35,49.94 -8.46,19.12 -30.79,27.79 -49.91,19.33 -19.12,-8.45 -27.77,-30.83 -19.34,-49.92 z m 174.18,197.88 c 9,-24.14 35.93,-36.43 60.09,-27.39 24.16,9.02 36.46,35.95 27.4,60.1 -9,24.16 -35.91,36.4 -60.06,27.4 -24.18,-9.04 -36.45,-35.95 -27.43,-60.11 z m 191.56,190.07 c 9.05,-29.33 40.18,-45.74 69.46,-36.68 29.33,9.04 45.76,40.15 36.71,69.43 -9.07,29.33 -40.14,45.77 -69.48,36.72 -29.32,-9.05 -45.72,-40.14 -36.69,-69.47 z m 208.61,180.89 c 8.52,-34.54 43.38,-55.64 77.95,-47.15 34.54,8.5 55.67,43.36 47.13,77.93 -8.49,34.54 -43.37,55.65 -77.94,47.17 -34.54,-8.53 -55.63,-43.42 -47.14,-77.95 z m 225.22,170.37 c 7.39,-39.77 45.57,-66.08 85.36,-58.7 39.78,7.38 66.12,45.56 58.75,85.42 -7.42,39.75 -45.64,66.03 -85.39,58.66 -39.82,-7.35 -66.08,-45.6 -58.72,-85.38 z m 241.28,158.48 c 5.64,-44.95 46.7,-76.88 91.71,-71.24 45,5.7 76.91,46.73 71.27,91.74 -5.67,45.02 -46.73,76.91 -91.73,71.28 -45.01,-5.69 -76.92,-46.71 -71.25,-91.78 z m 256.7,145.42 c 3.33,-50.14 46.71,-88.06 96.86,-84.71 50.12,3.34 88.01,46.72 84.68,96.84 -3.32,50.14 -46.71,88.07 -96.83,84.69 -50.15,-3.33 -88.09,-46.66 -84.71,-96.82 z M 2373.3,1540.72 c 0.5,-1.25 1.96,-1.8 3.16,-1.25 1.23,0.59 1.73,1.99 1.21,3.21 -0.53,1.22 -1.98,1.75 -3.17,1.2 -1.22,-0.52 -1.79,-1.96 -1.2,-3.16 z m 147.43,187.31 c 2.24,-5.84 8.76,-8.74 14.53,-6.47 5.87,2.18 8.78,8.67 6.52,14.5 -2.26,5.85 -8.72,8.74 -14.56,6.5 -5.79,-2.21 -8.69,-8.75 -6.49,-14.53 z m 164.32,181.09 c 3.35,-10.6 14.65,-16.43 25.24,-13.08 10.61,3.35 16.47,14.7 13.1,25.31 -3.37,10.57 -14.69,16.43 -25.24,13.08 -10.64,-3.36 -16.48,-14.7 -13.1,-25.31 z m 180.86,173.65 c 3.95,-15.52 19.74,-24.89 35.25,-20.96 15.5,3.97 24.89,19.73 20.95,35.29 -3.95,15.5 -19.75,24.87 -35.26,20.88 -15.53,-3.91 -24.91,-19.67 -20.94,-35.21 z m 197.14,164.76 c 3.96,-20.51 23.83,-33.9 44.37,-29.94 20.5,3.97 33.93,23.83 29.95,44.32 -4,20.51 -23.87,33.93 -44.36,29.96 -20.5,-3.95 -33.94,-23.81 -29.96,-44.34 z m 212.98,154.66 c 3.37,-25.55 26.88,-43.55 52.44,-40.11 25.57,3.45 43.54,26.93 40.09,52.49 -3.44,25.56 -26.93,43.52 -52.48,40.11 -25.58,-3.42 -43.52,-26.93 -40.05,-52.49 z m 228.17,143.18 c 2.31,-30.6 28.99,-53.52 59.59,-51.22 30.57,2.3 53.52,28.99 51.22,59.56 -2.3,30.63 -28.97,53.54 -59.59,51.23 -30.56,-2.31 -53.49,-28.96 -51.22,-59.57 z m 242.88,130.54 c 0.57,-35.59 29.91,-63.91 65.48,-63.32 35.58,0.58 63.92,29.93 63.33,65.49 -0.62,35.54 -29.9,63.92 -65.52,63.3 -35.55,-0.59 -63.88,-29.9 -63.29,-65.47 z m -587.77,-898.76 c 0.29,-1.31 1.53,-2.15 2.87,-1.88 1.28,0.25 2.15,1.52 1.88,2.86 -0.28,1.31 -1.56,2.15 -2.85,1.86 -1.29,-0.27 -2.14,-1.54 -1.9,-2.84 z m 184.42,150.25 c 0.89,-6.16 6.56,-10.43 12.72,-9.55 6.19,0.88 10.49,6.52 9.6,12.73 -0.87,6.17 -6.59,10.44 -12.75,9.57 -6.17,-0.89 -10.45,-6.62 -9.57,-12.75 z m 199.51,140.54 c 0.91,-11.07 10.62,-19.28 21.7,-18.38 11.06,0.96 19.34,10.66 18.39,21.76 -0.92,11.05 -10.63,19.27 -21.75,18.36 -11.07,-0.94 -19.27,-10.66 -18.34,-21.74 z m 214.03,129.57 c 0.43,-16 13.72,-28.65 29.72,-28.23 16,0.41 28.63,13.7 28.22,29.71 -0.38,16.01 -13.69,28.68 -29.69,28.25 -16,-0.42 -28.65,-13.74 -28.25,-29.73 z m 228.01,117.44 c -0.71,-20.91 15.67,-38.4 36.57,-39.09 20.9,-0.67 38.39,15.72 39.08,36.6 0.68,20.88 -15.68,38.33 -36.56,39.04 -20.93,0.69 -38.39,-15.7 -39.09,-36.55 z m -10.76,-482.51 c -0.02,-1.32 1.02,-2.42 2.36,-2.48 1.31,-0.03 2.42,1 2.48,2.33 0.05,1.36 -1.03,2.46 -2.37,2.49 -1.34,0.03 -2.42,-1 -2.47,-2.34 z m 224.43,116.42 c 6.23,-0.52 10.86,-5.95 10.34,-12.16 -0.55,-6.23 -5.97,-10.81 -12.21,-10.32 -6.2,0.5 -10.81,5.96 -10.28,12.16 0.52,6.23 5.98,10.86 12.15,10.32"
       style="opacity:1;fill:#473c7f;fill-opacity:1;fill-rule:nonzero;stroke:none"
       transform="matrix(0.04523248,0.03185387,0.03185387,-0.04523248,-1166.6365,191.73393)"
       clip-path="url(#clipPath263-9)" /></g></svg>
