<?xml version="1.0" encoding="UTF-8" standalone="no"?>
<!-- Created with Inkscape (http://www.inkscape.org/) -->

<svg
   width="629.83081"
   height="144.2688"
   viewBox="0 0 166.64273 38.17112"
   version="1.1"
   id="svg5"
   inkscape:version="1.3.2 (091e20e, 2023-11-25, custom)"
   xml:space="preserve"
   sodipodi:docname="VoiceArchi-UI-Design.svg"
   xmlns:inkscape="http://www.inkscape.org/namespaces/inkscape"
   xmlns:sodipodi="http://sodipodi.sourceforge.net/DTD/sodipodi-0.dtd"
   xmlns:xlink="http://www.w3.org/1999/xlink"
   xmlns="http://www.w3.org/2000/svg"
   xmlns:svg="http://www.w3.org/2000/svg"><sodipodi:namedview
     id="namedview7"
     pagecolor="#505050"
     bordercolor="#eeeeee"
     borderopacity="1"
     inkscape:showpageshadow="0"
     inkscape:pageopacity="0"
     inkscape:pagecheckerboard="0"
     inkscape:deskcolor="#999999"
     inkscape:document-units="mm"
     showgrid="false"
     showborder="false"
     borderlayer="false"
     inkscape:zoom="1.576835"
     inkscape:cx="-5549.7247"
     inkscape:cy="-788.60504"
     inkscape:window-width="2560"
     inkscape:window-height="1334"
     inkscape:window-x="-11"
     inkscape:window-y="-11"
     inkscape:window-maximized="1"
     inkscape:current-layer="layer3" /><defs
     id="defs2"><linearGradient
       id="linearGradient30"
       inkscape:collect="always"><stop
         style="stop-color:#ebebeb;stop-opacity:1;"
         offset="0"
         id="stop31" /><stop
         style="stop-color:#c0bbd7;stop-opacity:1;"
         offset="1"
         id="stop32" /></linearGradient><linearGradient
       id="linearGradient28"
       inkscape:collect="always"><stop
         style="stop-color:#7b67e2;stop-opacity:0.25770926;"
         offset="0"
         id="stop28" /><stop
         style="stop-color:#7b67e2;stop-opacity:1;"
         offset="0.52153051"
         id="stop30" /><stop
         style="stop-color:#7b67e2;stop-opacity:0.25882354;"
         offset="1"
         id="stop29" /></linearGradient><linearGradient
       inkscape:collect="always"
       xlink:href="#linearGradient28"
       id="linearGradient29-2"
       x1="-2002.1171"
       y1="187.9292"
       x2="-1296.0403"
       y2="187.9292"
       gradientUnits="userSpaceOnUse" /><inkscape:path-effect
       effect="taper_stroke"
       start_shape="center | center"
       end_shape="center | center"
       id="path-effect27-3"
       is_visible="true"
       lpeversion="1"
       stroke_width="5"
       subpath="1"
       attach_start="0.2"
       end_offset="0.2"
       start_smoothing="0.5"
       end_smoothing="0.5"
       jointype="extrapolated"
       miter_limit="100" /><linearGradient
       inkscape:collect="always"
       xlink:href="#linearGradient30"
       id="linearGradient33"
       gradientUnits="userSpaceOnUse"
       x1="-5692.9507"
       y1="-1578.6237"
       x2="-5692.9507"
       y2="-1496.104" /><linearGradient
       inkscape:collect="always"
       xlink:href="#linearGradient30"
       id="linearGradient37"
       gradientUnits="userSpaceOnUse"
       x1="-5692.9507"
       y1="-1578.6237"
       x2="-5692.9507"
       y2="-1496.104" /><linearGradient
       inkscape:collect="always"
       xlink:href="#linearGradient30"
       id="linearGradient38"
       gradientUnits="userSpaceOnUse"
       x1="-5692.9507"
       y1="-1578.6237"
       x2="-5692.9507"
       y2="-1496.104" /></defs><g
     inkscape:groupmode="layer"
     id="layer3"
     inkscape:label="Layer 1"
     transform="translate(1200.6214,-629.41583)"><g
       id="g33"
       inkscape:export-filename="..\Code\VoiceArchi-React\voicearchi-react\src\assets\intro_title_svg.svg"
       inkscape:export-xdpi="96"
       inkscape:export-ydpi="96"
       transform="translate(576.05577,1133.4471)"><g
         id="text17-2"
         style="font-weight:500;font-size:39.9999px;font-family:Montserrat;-inkscape-font-specification:'Montserrat, Medium';white-space:pre;fill:url(#linearGradient33);stroke-width:0.999999"
         transform="matrix(0.35633181,0,0,0.35633181,326.06723,58.48258)"
         aria-label="Design with Your Voice&#10;&#10;with VoiceArchi"><path
           d="m -5901.085,-1548.3437 v -28 h 11.8 q 4.48,0 7.88,1.76 3.44,1.76 5.32,4.92 1.92,3.16 1.92,7.32 0,4.16 -1.92,7.32 -1.88,3.16 -5.32,4.92 -3.4,1.76 -7.88,1.76 z m 4,-3.48 h 7.56 q 3.48,0 6,-1.32 2.56,-1.32 3.96,-3.68 1.4,-2.4 1.4,-5.52 0,-3.16 -1.4,-5.52 -1.4,-2.36 -3.96,-3.68 -2.52,-1.32 -6,-1.32 h -7.56 z m 37.9199,3.72 q -3.3999,0 -5.9999,-1.4 -2.56,-1.4 -4,-3.84 -1.4,-2.44 -1.4,-5.6 0,-3.16 1.36,-5.6 1.4,-2.44 3.8,-3.8 2.44,-1.4 5.4799,-1.4 3.08,0 5.44,1.36 2.36,1.36 3.68,3.84 1.36,2.44 1.36,5.72 0,0.24 -0.04,0.56 0,0.32 -0.04,0.6 h -18.0399 v -2.76 h 16.0399 l -1.56,0.96 q 0.04,-2.04 -0.84,-3.64 -0.88,-1.6 -2.44,-2.48 -1.52,-0.92 -3.56,-0.92 -1.9999,0 -3.5599,0.92 -1.56,0.88 -2.44,2.52 -0.88,1.6 -0.88,3.68 v 0.64 q 0,2.12 0.96,3.8 1,1.64 2.76,2.56 1.76,0.92 4.0399,0.92 1.88,0 3.4,-0.64 1.56,-0.64 2.72,-1.92 l 2.12,2.48 q -1.44,1.68 -3.6,2.56 -2.12,0.88 -4.76,0.88 z m 21.12,0 q -2.64,0 -5.04,-0.72 -2.36,-0.72 -3.72,-1.76 l 1.6,-3.04 q 1.36,0.92 3.36,1.56 2,0.64 4.08,0.64 2.68,0 3.84,-0.76 1.2,-0.76 1.2,-2.12 0,-1 -0.72,-1.56 -0.72,-0.56 -1.92,-0.84 -1.16,-0.28 -2.6,-0.48 -1.44,-0.24 -2.88,-0.56 -1.44,-0.36 -2.64,-0.96 -1.2,-0.64 -1.92,-1.72 -0.72,-1.12 -0.72,-2.96 0,-1.92 1.08,-3.36 1.08,-1.44 3.04,-2.2 2,-0.8 4.72,-0.8 2.08,0 4.2,0.52 2.16,0.48 3.52,1.4 l -1.64,3.04 q -1.44,-0.96 -3,-1.32 -1.56,-0.36 -3.12,-0.36 -2.52,0 -3.76,0.84 -1.24,0.8 -1.24,2.08 0,1.08 0.72,1.68 0.76,0.56 1.92,0.88 1.2,0.32 2.64,0.56 1.44,0.2 2.88,0.56 1.44,0.32 2.6,0.92 1.2,0.6 1.92,1.68 0.76,1.08 0.76,2.88 0,1.92 -1.12,3.32 -1.12,1.4 -3.16,2.2 -2.04,0.76 -4.88,0.76 z m 13.9599,-0.24 v -21.2 h 3.84 v 21.2 z m 1.92,-25.28 q -1.12,0 -1.88,-0.72 -0.72,-0.72 -0.72,-1.76 0,-1.08 0.72,-1.8 0.76,-0.72 1.88,-0.72 1.12,0 1.84,0.72 0.76,0.68 0.76,1.72 0,1.08 -0.72,1.84 -0.72,0.72 -1.88,0.72 z m 18.5199,33.2799 q -2.92,0 -5.6799,-0.84 -2.72,-0.8 -4.44,-2.32 l 1.84,-2.9599 q 1.48,1.2799 3.6399,1.9999 2.16,0.76 4.52,0.76 3.76,0 5.52,-1.76 1.76,-1.7599 1.76,-5.3599 v -4.48 l 0.4,-4.2 -0.2,-4.24 v -5.8 h 3.64 v 18.32 q 0,5.6 -2.8,8.2399 -2.8,2.64 -8.2,2.64 z m -0.48,-8.8799 q -3.08,0 -5.5199,-1.28 -2.4,-1.32 -3.84,-3.64 -1.4,-2.32 -1.4,-5.36 0,-3.08 1.4,-5.36 1.44,-2.32 3.84,-3.6 2.4399,-1.28 5.5199,-1.28 2.72,0 4.96,1.12 2.24,1.08 3.56,3.36 1.36,2.28 1.36,5.76 0,3.44 -1.36,5.72 -1.32,2.28 -3.56,3.44 -2.24,1.12 -4.96,1.12 z m 0.44,-3.36 q 2.12,0 3.76,-0.88 1.64,-0.88 2.56,-2.44 0.96,-1.56 0.96,-3.6 0,-2.04 -0.96,-3.6 -0.92,-1.56 -2.56,-2.4 -1.64,-0.88 -3.76,-0.88 -2.12,0 -3.8,0.88 -1.6399,0.84 -2.5999,2.4 -0.92,1.56 -0.92,3.6 0,2.04 0.92,3.6 0.96,1.56 2.5999,2.44 1.68,0.88 3.8,0.88 z m 29.68,-17.16 q 2.6,0 4.56,1 2,1 3.12,3.04 1.12,2.04 1.12,5.16 v 12.2 h -3.84 v -11.76 q 0,-3.08 -1.52,-4.64 -1.48,-1.56 -4.2,-1.56 -2.04,0 -3.56,0.8 -1.52,0.8 -2.36,2.36 -0.8,1.56 -0.8,3.88 v 10.92 h -3.84 v -21.2 h 3.68 v 5.72 l -0.6,-1.52 q 1.04,-2.08 3.2,-3.24 2.16,-1.16 5.04,-1.16 z m 31.1599,21.4 -7.88,-21.2 h 3.64 l 7,19.2 h -1.72 l 7.2799,-19.2 h 3.24 l 7.12,19.2 h -1.68 l 7.16,-19.2 h 3.44 l -7.92,21.2 h -3.68 l -6.68,-17.52 h 1.12 l -6.7599,17.52 z m 31.4799,0 v -21.2 h 3.84 v 21.2 z m 1.92,-25.28 q -1.12,0 -1.88,-0.72 -0.72,-0.72 -0.72,-1.76 0,-1.08 0.72,-1.8 0.76,-0.72 1.88,-0.72 1.12,0 1.84,0.72 0.76,0.68 0.76,1.72 0,1.08 -0.72,1.84 -0.72,0.72 -1.88,0.72 z m 16.5199,25.52 q -3.2,0 -4.96,-1.72 -1.76,-1.72 -1.76,-4.92 v -19.44 h 3.84 v 19.28 q 0,1.72 0.84,2.64 0.88,0.92 2.48,0.92 1.8,0 3,-1 l 1.2,2.76 q -0.88,0.76 -2.12,1.12 -1.2,0.36 -2.52,0.36 z m -10.32,-18.28 v -3.16 h 13.52 v 3.16 z m 30.92,-3.36 q 2.6,0 4.5599,1 2,1 3.12,3.04 1.12,2.04 1.12,5.16 v 12.2 h -3.84 v -11.76 q 0,-3.08 -1.52,-4.64 -1.4799,-1.56 -4.1999,-1.56 -2.04,0 -3.56,0.8 -1.52,0.8 -2.36,2.36 -0.8,1.56 -0.8,3.88 v 10.92 h -3.84 v -29.68 h 3.84 v 14.2 l -0.76,-1.52 q 1.04,-2.08 3.2,-3.24 2.16,-1.16 5.04,-1.16 z m 33.9998,21.4 v -10.72 l 0.92,2.48 -12.0399,-19.76 h 4.2799 l 10.12,16.68 h -2.32 l 10.16,-16.68 h 3.96 l -12,19.76 0.88,-2.48 v 10.72 z m 25.2399,0.24 q -3.1999,0 -5.6799,-1.4 -2.48,-1.4 -3.92,-3.84 -1.44,-2.48 -1.44,-5.6 0,-3.16 1.44,-5.6 1.44,-2.44 3.92,-3.8 2.48,-1.4 5.6799,-1.4 3.16,0 5.64,1.4 2.52,1.36 3.92,3.8 1.44,2.4 1.44,5.6 0,3.16 -1.44,5.6 -1.4,2.44 -3.92,3.84 -2.48,1.4 -5.64,1.4 z m 0,-3.36 q 2.04,0 3.64,-0.92 1.64,-0.92 2.56,-2.6 0.92,-1.72 0.92,-3.96 0,-2.28 -0.92,-3.92 -0.92,-1.68 -2.56,-2.6 -1.6,-0.92 -3.64,-0.92 -2.0399,0 -3.6399,0.92 -1.6,0.92 -2.56,2.6 -0.96,1.64 -0.96,3.92 0,2.24 0.96,3.96 0.96,1.68 2.56,2.6 1.6,0.92 3.6399,0.92 z m 25.24,3.36 q -2.72,0 -4.8,-1 -2.04,-1 -3.2,-3.04 -1.12,-2.08 -1.12,-5.2 v -12.2 h 3.84 v 11.76 q 0,3.12 1.48,4.68 1.52,1.56 4.24,1.56 2,0 3.48,-0.8 1.48,-0.84 2.28,-2.4 0.8,-1.6 0.8,-3.84 v -10.96 h 3.84 v 21.2 h -3.64 v -5.72 l 0.6,1.52 q -1.04,2.12 -3.12,3.28 -2.08,1.16 -4.68,1.16 z m 18.16,-0.24 v -21.2 h 3.6799 v 5.76 l -0.36,-1.44 q 0.88,-2.2 2.96,-3.36 2.08,-1.16 5.12,-1.16 v 3.72 q -0.24,-0.04 -0.48,-0.04 -0.2,0 -0.4,0 -3.08,0 -4.88,1.84 -1.8,1.84 -1.8,5.32 v 10.56 z m 35.7998,0 -12.32,-28 h 4.32 l 11.32,25.84 h -2.48 l 11.4,-25.84 h 4 l -12.28,28 z m 26.72,0.24 q -3.2,0 -5.68,-1.4 -2.48,-1.4 -3.92,-3.84 -1.44,-2.48 -1.44,-5.6 0,-3.16 1.44,-5.6 1.44,-2.44 3.92,-3.8 2.48,-1.4 5.68,-1.4 3.1599,0 5.6399,1.4 2.52,1.36 3.92,3.8 1.44,2.4 1.44,5.6 0,3.16 -1.44,5.6 -1.4,2.44 -3.92,3.84 -2.48,1.4 -5.6399,1.4 z m 0,-3.36 q 2.0399,0 3.6399,-0.92 1.64,-0.92 2.56,-2.6 0.92,-1.72 0.92,-3.96 0,-2.28 -0.92,-3.92 -0.92,-1.68 -2.56,-2.6 -1.6,-0.92 -3.6399,-0.92 -2.04,0 -3.64,0.92 -1.6,0.92 -2.56,2.6 -0.96,1.64 -0.96,3.92 0,2.24 0.96,3.96 0.96,1.68 2.56,2.6 1.6,0.92 3.64,0.92 z m 16.3199,3.12 v -21.2 h 3.84 v 21.2 z m 1.92,-25.28 q -1.12,0 -1.88,-0.72 -0.72,-0.72 -0.72,-1.76 0,-1.08 0.72,-1.8 0.76,-0.72 1.88,-0.72 1.12,0 1.84,0.72 0.76,0.68 0.76,1.72 0,1.08 -0.72,1.84 -0.72,0.72 -1.88,0.72 z m 18.4799,25.52 q -3.24,0 -5.8,-1.4 -2.52,-1.4 -3.9599,-3.84 -1.44,-2.44 -1.44,-5.6 0,-3.16 1.44,-5.6 1.4399,-2.44 3.9599,-3.8 2.56,-1.4 5.8,-1.4 2.88,0 5.12,1.16 2.28,1.12 3.52,3.36 l -2.92,1.88 q -1.04,-1.56 -2.56,-2.28 -1.48,-0.76 -3.2,-0.76 -2.08,0 -3.72,0.92 -1.64,0.92 -2.6,2.6 -0.96,1.64 -0.96,3.92 0,2.28 0.96,3.96 0.96,1.68 2.6,2.6 1.64,0.92 3.72,0.92 1.72,0 3.2,-0.72 1.52,-0.76 2.56,-2.32 l 2.92,1.84 q -1.24,2.2 -3.52,3.4 -2.24,1.16 -5.12,1.16 z m 22.72,0 q -3.4,0 -6,-1.4 -2.56,-1.4 -4,-3.84 -1.4,-2.44 -1.4,-5.6 0,-3.16 1.36,-5.6 1.4,-2.44 3.8,-3.8 2.44,-1.4 5.48,-1.4 3.08,0 5.44,1.36 2.36,1.36 3.68,3.84 1.36,2.44 1.36,5.72 0,0.24 -0.04,0.56 0,0.32 -0.04,0.6 h -18.04 v -2.76 h 16.04 l -1.56,0.96 q 0.04,-2.04 -0.84,-3.64 -0.88,-1.6 -2.44,-2.48 -1.52,-0.92 -3.56,-0.92 -2,0 -3.56,0.92 -1.56,0.88 -2.44,2.52 -0.88,1.6 -0.88,3.68 v 0.64 q 0,2.12 0.96,3.8 1,1.64 2.76,2.56 1.76,0.92 4.04,0.92 1.88,0 3.4,-0.64 1.56,-0.64 2.72,-1.92 l 2.12,2.48 q -1.44,1.68 -3.6,2.56 -2.12,0.88 -4.76,0.88 z"
           id="path34"
           style="fill:url(#linearGradient37)" /><path
           d="m -5821.5252,-1496.344 -7.88,-21.1999 h 3.64 l 7,19.1999 h -1.72 l 7.28,-19.1999 h 3.24 l 7.12,19.1999 h -1.68 l 7.1599,-19.1999 h 3.44 l -7.92,21.1999 h -3.6799 l -6.68,-17.5199 h 1.12 l -6.76,17.5199 z m 31.4799,0 v -21.1999 h 3.84 v 21.1999 z m 1.92,-25.2799 q -1.12,0 -1.88,-0.72 -0.72,-0.72 -0.72,-1.76 0,-1.08 0.72,-1.8 0.76,-0.72 1.88,-0.72 1.12,0 1.84,0.72 0.76,0.68 0.76,1.72 0,1.08 -0.72,1.84 -0.72,0.72 -1.88,0.72 z m 16.52,25.5199 q -3.2,0 -4.96,-1.72 -1.76,-1.72 -1.76,-4.92 v -19.4399 h 3.84 v 19.2799 q 0,1.72 0.84,2.64 0.88,0.92 2.48,0.92 1.8,0 2.9999,-1 l 1.2,2.76 q -0.88,0.76 -2.12,1.12 -1.1999,0.36 -2.5199,0.36 z m -10.32,-18.2799 v -3.16 h 13.5199 v 3.16 z m 30.9199,-3.36 q 2.6,0 4.56,1 2,1 3.12,3.04 1.12,2.04 1.12,5.1599 v 12.2 h -3.84 v -11.76 q 0,-3.08 -1.52,-4.6399 -1.48,-1.56 -4.2,-1.56 -2.04,0 -3.56,0.8 -1.52,0.8 -2.36,2.3599 -0.8,1.56 -0.8,3.88 v 10.92 h -3.84 v -29.6799 h 3.84 v 14.2 l -0.76,-1.52 q 1.04,-2.08 3.2,-3.24 2.16,-1.16 5.04,-1.16 z m 35.3199,21.3999 -12.32,-27.9999 h 4.32 l 11.3199,25.8399 h -2.48 l 11.4,-25.8399 h 4 l -12.28,27.9999 z m 26.7199,0.24 q -3.2,0 -5.68,-1.4 -2.48,-1.4 -3.92,-3.84 -1.44,-2.48 -1.44,-5.6 0,-3.16 1.44,-5.5999 1.44,-2.44 3.92,-3.8 2.48,-1.4 5.68,-1.4 3.16,0 5.64,1.4 2.52,1.36 3.9199,3.8 1.44,2.3999 1.44,5.5999 0,3.16 -1.44,5.6 -1.3999,2.44 -3.9199,3.84 -2.48,1.4 -5.64,1.4 z m 0,-3.36 q 2.04,0 3.64,-0.92 1.64,-0.92 2.56,-2.6 0.92,-1.72 0.92,-3.96 0,-2.28 -0.92,-3.92 -0.92,-1.6799 -2.56,-2.5999 -1.6,-0.92 -3.64,-0.92 -2.04,0 -3.64,0.92 -1.6,0.92 -2.56,2.5999 -0.96,1.64 -0.96,3.92 0,2.24 0.96,3.96 0.96,1.68 2.56,2.6 1.6,0.92 3.64,0.92 z m 16.3199,3.12 v -21.1999 h 3.84 v 21.1999 z m 1.92,-25.2799 q -1.12,0 -1.88,-0.72 -0.72,-0.72 -0.72,-1.76 0,-1.08 0.72,-1.8 0.76,-0.72 1.88,-0.72 1.12,0 1.84,0.72 0.76,0.68 0.76,1.72 0,1.08 -0.72,1.84 -0.72,0.72 -1.88,0.72 z m 18.48,25.5199 q -3.24,0 -5.8,-1.4 -2.52,-1.4 -3.96,-3.84 -1.44,-2.44 -1.44,-5.6 0,-3.16 1.44,-5.5999 1.44,-2.44 3.96,-3.8 2.56,-1.4 5.8,-1.4 2.8799,0 5.1199,1.16 2.28,1.12 3.52,3.36 l -2.92,1.88 q -1.04,-1.56 -2.56,-2.28 -1.4799,-0.76 -3.1999,-0.76 -2.08,0 -3.72,0.92 -1.64,0.92 -2.6,2.5999 -0.96,1.64 -0.96,3.92 0,2.28 0.96,3.96 0.96,1.68 2.6,2.6 1.64,0.92 3.72,0.92 1.72,0 3.1999,-0.72 1.52,-0.76 2.56,-2.32 l 2.92,1.84 q -1.24,2.2 -3.52,3.4 -2.24,1.16 -5.1199,1.16 z m 22.7199,0 q -3.4,0 -6,-1.4 -2.56,-1.4 -4,-3.84 -1.4,-2.44 -1.4,-5.6 0,-3.16 1.36,-5.5999 1.4,-2.44 3.8,-3.8 2.44,-1.4 5.48,-1.4 3.08,0 5.44,1.36 2.36,1.36 3.68,3.84 1.36,2.4399 1.36,5.7199 0,0.24 -0.04,0.56 0,0.32 -0.04,0.6 h -18.04 v -2.76 h 16.04 l -1.56,0.96 q 0.04,-2.04 -0.84,-3.64 -0.88,-1.5999 -2.44,-2.4799 -1.52,-0.92 -3.56,-0.92 -2,0 -3.56,0.92 -1.56,0.88 -2.44,2.5199 -0.88,1.6 -0.88,3.68 v 0.64 q 0,2.12 0.96,3.8 1,1.64 2.76,2.56 1.76,0.92 4.04,0.92 1.88,0 3.4,-0.64 1.56,-0.64 2.72,-1.92 l 2.12,2.48 q -1.44,1.68 -3.6,2.56 -2.12,0.88 -4.76,0.88 z m 11.36,-0.24 12.6799,-27.9999 h 3.96 l 12.72,27.9999 h -4.2 l -11.32,-25.7599 h 1.6 l -11.32,25.7599 z m 5.3999,-7 1.08,-3.2 h 15.76 l 1.16,3.2 z m 27.56,7 v -21.1999 h 3.68 v 5.76 l -0.36,-1.44 q 0.88,-2.2 2.96,-3.36 2.08,-1.16 5.12,-1.16 v 3.72 q -0.24,-0.04 -0.48,-0.04 -0.2,0 -0.4,0 -3.08,0 -4.88,1.84 -1.8,1.8399 -1.8,5.3199 v 10.56 z m 25.16,0.24 q -3.24,0 -5.8,-1.4 -2.52,-1.4 -3.96,-3.84 -1.44,-2.44 -1.44,-5.6 0,-3.16 1.44,-5.5999 1.44,-2.44 3.96,-3.8 2.56,-1.4 5.8,-1.4 2.8799,0 5.1199,1.16 2.28,1.12 3.52,3.36 l -2.92,1.88 q -1.04,-1.56 -2.56,-2.28 -1.4799,-0.76 -3.1999,-0.76 -2.08,0 -3.72,0.92 -1.64,0.92 -2.6,2.5999 -0.96,1.64 -0.96,3.92 0,2.28 0.96,3.96 0.96,1.68 2.6,2.6 1.64,0.92 3.72,0.92 1.72,0 3.1999,-0.72 1.52,-0.76 2.56,-2.32 l 2.92,1.84 q -1.24,2.2 -3.52,3.4 -2.24,1.16 -5.1199,1.16 z m 24.6399,-21.6399 q 2.5999,0 4.5599,1 2,1 3.12,3.04 1.12,2.04 1.12,5.1599 v 12.2 h -3.84 v -11.76 q 0,-3.08 -1.52,-4.6399 -1.4799,-1.56 -4.1999,-1.56 -2.04,0 -3.56,0.8 -1.52,0.8 -2.36,2.3599 -0.8,1.56 -0.8,3.88 v 10.92 h -3.84 v -29.6799 h 3.84 v 14.2 l -0.76,-1.52 q 1.04,-2.08 3.2,-3.24 2.16,-1.16 5.04,-1.16 z m 15.9199,21.3999 v -21.1999 h 3.84 v 21.1999 z m 1.92,-25.2799 q -1.12,0 -1.88,-0.72 -0.72,-0.72 -0.72,-1.76 0,-1.08 0.72,-1.8 0.76,-0.72 1.88,-0.72 1.12,0 1.84,0.72 0.76,0.68 0.76,1.72 0,1.08 -0.72,1.84 -0.72,0.72 -1.88,0.72 z"
           id="path36"
           style="fill:url(#linearGradient38)" /></g><path
         style="font-variation-settings:normal;vector-effect:none;fill:url(#linearGradient29-2);fill-rule:nonzero;stroke:none;stroke-width:3;stroke-linecap:butt;stroke-linejoin:miter;stroke-miterlimit:4;stroke-dasharray:none;stroke-dashoffset:0;stroke-opacity:1;-inkscape-stroke:none;stop-color:#000000"
         d="m -1437.2557,190.4292 c 70.6077,0 141.2154,-2.5 141.2154,-2.5 0,0 -70.6077,-2.5 -141.2154,-2.5 l -423.646,0 c -70.6077,0 -141.2154,2.5 -141.2154,2.5 0,0 70.6077,2.5 141.2154,2.5 z"
         id="path26-0"
         transform="matrix(0.23463917,0,0,0.12192336,-1305.9325,-489.07792)"
         inkscape:original-d="m -1296.0403,187.9292 h -706.0768"
         inkscape:path-effect="#path-effect27-3" /></g></g></svg>
