<?xml version="1.0" encoding="UTF-8" standalone="no"?>
<!-- Created with Inkscape (http://www.inkscape.org/) -->

<svg
   width="98.304886"
   height="19.308105"
   viewBox="0 0 26.009834 5.1086029"
   version="1.1"
   id="svg5"
   inkscape:version="1.3.2 (091e20e, 2023-11-25, custom)"
   xml:space="preserve"
   sodipodi:docname="VoiceArchi-UI-Design.svg"
   xmlns:inkscape="http://www.inkscape.org/namespaces/inkscape"
   xmlns:sodipodi="http://sodipodi.sourceforge.net/DTD/sodipodi-0.dtd"
   xmlns="http://www.w3.org/2000/svg"
   xmlns:svg="http://www.w3.org/2000/svg"><sodipodi:namedview
     id="namedview7"
     pagecolor="#505050"
     bordercolor="#eeeeee"
     borderopacity="1"
     inkscape:showpageshadow="0"
     inkscape:pageopacity="0"
     inkscape:pagecheckerboard="0"
     inkscape:deskcolor="#999999"
     inkscape:document-units="mm"
     showgrid="false"
     showborder="false"
     borderlayer="false"
     inkscape:zoom="0.55749535"
     inkscape:cx="591.93319"
     inkscape:cy="-2506.7474"
     inkscape:window-width="2560"
     inkscape:window-height="1334"
     inkscape:window-x="-11"
     inkscape:window-y="-11"
     inkscape:window-maximized="1"
     inkscape:current-layer="layer3" /><defs
     id="defs2" /><g
     inkscape:groupmode="layer"
     id="layer3"
     inkscape:label="Layer 1"
     transform="translate(78.539369,697.38507)"><g
       id="g35"><text
         xml:space="preserve"
         style="font-style:normal;font-variant:normal;font-weight:normal;font-stretch:normal;font-size:39.9999px;line-height:0.5;font-family:Montserrat;-inkscape-font-specification:'Montserrat, Normal';font-variant-ligatures:normal;font-variant-position:normal;font-variant-caps:normal;font-variant-numeric:normal;font-variant-alternates:normal;font-variant-east-asian:normal;text-indent:0;text-align:start;text-decoration-line:none;text-decoration-style:solid;text-decoration-color:#000000;letter-spacing:normal;word-spacing:normal;text-transform:none;writing-mode:lr-tb;direction:ltr;text-orientation:mixed;dominant-baseline:auto;baseline-shift:baseline;text-anchor:start;white-space:normal;shape-padding:0;shape-margin:0;inline-size:0;vector-effect:none;fill:#000000;fill-opacity:1;stroke-width:0.999999;stroke-linecap:butt;stroke-linejoin:miter;stroke-miterlimit:4;stroke-dasharray:none;stroke-dashoffset:0;stroke-opacity:1;-inkscape-stroke:none;stop-color:#000000"
         x="-2695.4236"
         y="-1070.8475"
         id="text18-6"
         transform="matrix(0.11905783,0,0,0.11905783,248.83727,-565.73138)"><tspan
           sodipodi:role="line"
           id="tspan17-4"
           x="-2695.4236"
           y="-1070.8475"
           style="font-style:normal;font-variant:normal;font-weight:normal;font-stretch:normal;font-size:39.9999px;font-family:Montserrat;-inkscape-font-specification:'Montserrat, Normal';font-variant-ligatures:normal;font-variant-caps:normal;font-variant-numeric:normal;font-variant-east-asian:normal;fill:#ffffff">Settings</tspan></text><path
         style="fill:#ffffff;fill-opacity:1;stroke:none;stroke-width:0.252696;stroke-linecap:round;stroke-miterlimit:4;stroke-dasharray:none;stroke-dashoffset:0;stroke-opacity:1"
         d="m -76.003507,-697.3821 -3.33e-4,2.6e-4 c -0.06715,0.01 -0.120949,0.0471 -0.145936,0.14087 l -0.0811,0.27035 c -0.02756,0.0918 -0.05212,0.18458 -0.153192,0.20204 l -0.328462,0.0567 c -0.101063,0.0175 -0.154562,-0.062 -0.211721,-0.13901 l -0.191594,-0.25738 c -0.07424,-0.11707 -0.203409,-0.033 -0.295629,0.0184 l -0.12166,0.0794 0.0016,2.6e-4 c -0.130515,0.0917 -0.278957,0.16282 -0.180023,0.32992 l 0.136297,0.24683 c 0.04618,0.084 0.09556,0.16669 0.03739,0.25103 l -0.189935,0.27474 c -0.05797,0.0846 -0.152958,0.0662 -0.247946,0.053 l -0.317679,-0.0434 c -0.06986,-0.0149 -0.112074,0.0172 -0.140173,0.0666 l 6.2e-5,2.6e-4 c -0.01933,0.0337 -0.03124,0.0736 -0.04199,0.11267 l -0.05437,0.24071 c -0.0068,0.0513 -0.0147,0.11482 -0.0048,0.16922 0.01014,0.0564 0.03927,0.10263 0.109235,0.11651 l 0.309516,0.0861 c 0.0924,0.0256 0.18576,0.0465 0.205569,0.14728 l 0.0659,0.32649 c 0.01993,0.10061 -0.05796,0.15761 -0.13364,0.21649 l -0.22242,0.17227 c -0.14604,0.10632 -0.07429,0.22116 0.0037,0.34597 l 0.05277,0.0815 c 0.0011,0.002 0.0019,0.003 0.0038,0.004 0.04443,0.0642 0.08779,0.13112 0.140217,0.1707 0.05365,0.0402 0.116631,0.0519 0.200351,0.003 l 0.248324,-0.13429 c 0.08427,-0.0457 0.166899,-0.0945 0.250914,-0.0358 l 0.272793,0.19179 c 0.08418,0.0586 0.06677,0.15265 0.05298,0.24758 l -0.04604,0.31739 c -0.02981,0.13557 0.120317,0.16968 0.221961,0.19829 l 0.228531,0.0519 c 0.05179,0.007 0.115425,0.0162 0.170405,0.008 l 3.32e-4,-6e-5 c 0.05627,-0.009 0.102561,-0.037 0.115723,-0.10721 l 0.08172,-0.31066 c 0.02457,-0.0927 0.0451,-0.1861 0.145485,-0.20715 l 0.326226,-0.0697 c 0.100335,-0.0213 0.157158,0.0563 0.216839,0.13129 l 0.175836,0.22106 c 0.08657,0.11624 0.176811,0.0878 0.27301,0.0306 l 0.177839,-0.11641 c 0.03896,-0.0283 0.08327,-0.0599 0.114,-0.0974 0.03589,-0.044 0.05175,-0.0944 0.01282,-0.15427 l -0.154873,-0.28194 c -0.04629,-0.084 -0.09671,-0.16546 -0.03861,-0.25006 l 0.187906,-0.27553 c 0.05797,-0.0846 0.152191,-0.0682 0.247197,-0.0552 l 0.279749,0.0389 c 0.163777,0.0278 0.197361,-0.089 0.227855,-0.21986 l 0.02764,-0.12118 c 0.03034,-0.14308 0.0594,-0.27777 -0.112562,-0.32678 l -0.268977,-0.0863 c -0.09132,-0.0292 -0.183466,-0.055 -0.199164,-0.15635 l -0.05073,-0.3295 c -0.01583,-0.10133 0.06487,-0.15386 0.142769,-0.20971 l 0.261215,-0.18695 c 0.06096,-0.0372 0.07235,-0.0913 0.06278,-0.14811 l 3.32e-4,-2.6e-4 c -0.0092,-0.0569 -0.04066,-0.11569 -0.0652,-0.16241 l -0.13786,-0.20979 c -0.03043,-0.0405 -0.06613,-0.0892 -0.108595,-0.12155 -0.04614,-0.0351 -0.09926,-0.0499 -0.158807,-0.0105 l -0.27964,0.15713 c -0.08362,0.0469 -0.165633,0.0971 -0.250694,0.0394 l -0.276685,-0.18581 c -0.08512,-0.0572 -0.06862,-0.1519 -0.05631,-0.247 l 0.03583,-0.27997 c 0.02974,-0.18376 -0.117792,-0.20663 -0.266568,-0.24141 -0.0065,-0.002 -0.01212,-0.003 -0.01855,-0.004 l -0.07542,-0.0173 c -0.06887,-0.0129 -0.137946,-0.0255 -0.196683,-0.0168 z m -0.389879,1.17655 a 1.1350822,1.1350822 0 0 1 0.827694,0.20781 1.1350822,1.1350822 0 0 1 0.246523,1.58615 1.1350822,1.1350822 0 0 1 -1.586143,0.24653 1.1350822,1.1350822 0 0 1 -0.246531,-1.58615 1.1350822,1.1350822 0 0 1 0.758492,-0.45409 z"
         id="rect1035-1"
         inkscape:connector-curvature="0" /></g></g></svg>
